<?xml version="1.0" standalone="no"?>
<!DOCTYPE svg PUBLIC "-//W3C//DTD SVG 1.1//EN" "http://www.w3.org/Graphics/SVG/1.1/DTD/svg11.dtd" >
<svg xmlns="http://www.w3.org/2000/svg">
<metadata>Generated by IcoMoon</metadata>
<defs>
<font id="nova-circular" horiz-adv-x="1024">
<font-face units-per-em="1024" ascent="960" descent="-64" />
<missing-glyph horiz-adv-x="1024" />
<glyph unicode="&#x20;" horiz-adv-x="512" d="" />
<glyph unicode="&#xe900;" glyph-name="alert-square" d="M273.072 872.784c-69.936-7.904-133.936-53.168-165.312-116.944-7.738-15.397-14.103-33.288-18.186-52.031l-0.278-1.521c-2.928-13.632-3.104-28.864-3.104-254.288s0.176-240.656 3.104-254.288c18.48-86.352 82.064-149.936 168.416-168.416 13.632-2.928 28.864-3.104 254.288-3.104s240.656 0.176 254.288 3.104c65.216 13.968 118.96 54.496 148.176 111.76 8.714 16.336 15.701 35.273 19.981 55.214l0.259 1.442c2.928 13.632 3.104 28.864 3.104 254.288s-0.176 240.656-3.104 254.288c-12.048 56.272-44.56 105.12-89.904 135.104-32.16 21.264-59.888 31.52-95.936 35.456-20.032 2.192-456.304 2.128-475.792-0.064zM762.048 784.16c41.632-13.152 74.752-46.752 86.496-87.776l3.936-13.712v-469.344l-3.936-13.712c-11.856-41.392-45.072-74.896-87.376-88.096l-12.8-4h-472.736l-12.8 4c-42.304 13.2-75.52 46.704-87.376 88.096l-3.936 13.712v469.344l3.936 13.712c13.376 46.752 53.856 82.976 101.824 91.136 4.72 0.8 112.656 1.344 239.84 1.2l231.248-0.24 13.68-4.32zM495.648 659.040c-10.208-3.36-17.296-9.28-21.632-18.080-3.808-7.744-3.824-8.256-4.32-102.416-0.528-100.128-0.112-106.88 7.264-118.064 6.592-9.984 17.44-14.288 35.888-14.288 16.56 0.016 24.88 2.912 32.8 11.392 8.88 9.52 9.024 11.392 9.024 115.744 0 82.688-0.384 97.936-2.624 104.272-5.248 14.896-16.528 22.032-36.496 23.056-8.016 0.416-15.584-0.208-19.904-1.616zM495.52 317.664c-16.8-5.52-24.512-16.304-25.792-36.064-1.328-20.512 4.672-34.096 18.448-41.808 6.64-3.728 9.696-4.272 23.824-4.272 13.328 0.016 17.424 0.656 23.040 3.68 13.92 7.488 19.632 18.576 19.632 38.128 0 27.456-12.256 40.608-39.12 42-8.096 0.416-15.584-0.208-20.032-1.664z" />
<glyph unicode="&#xe901;" glyph-name="arrow-down" d="M172.624 346.448c2.176-4.224 60.16-63.632 152.416-156.16 81.904-82.128 150.688-151.936 152.864-155.104 5.104-7.504 23.184-15.952 34.096-15.952 10.208 0 29.12 8.512 33.456 15.072 1.776 2.672 70.544 72.464 152.816 155.088 105.552 106 150.704 152.464 153.376 157.808 7.52 15.024 3.712 30.592-11.072 45.376s-30.352 18.592-45.376 11.072c-5.312-2.656-42.368-38.528-124.048-120.064l-116.48-116.272-0.016 337.040c0 220.512-0.608 339.168-1.728 343.216-1.248 4.617-3.403 8.939-6.339 12.713-2.938 3.775-6.597 6.926-10.765 9.271-6.656 3.728-9.648 4.256-23.824 4.208-18.464-0.048-27.504-3.44-34.192-12.832-8.864-12.448-8.48 4-8.48-357.28v-336.336l-116.48 116.272c-81.68 81.536-118.736 117.408-124.048 120.064-15.024 7.52-30.592 3.712-45.376-11.072-14.496-14.496-18.432-31.296-10.8-46.128z" />
<glyph unicode="&#xe902;" glyph-name="arrow-left" d="M410.448 787.376c-4.224-2.176-63.632-60.16-156.16-152.416-82.128-81.904-151.936-150.688-155.104-152.864-7.504-5.104-15.952-23.184-15.952-34.096 0-10.208 8.512-29.12 15.072-33.456 2.672-1.776 72.464-70.544 155.088-152.816 106-105.552 152.464-150.704 157.808-153.376 15.024-7.52 30.592-3.712 45.376 11.072s18.592 30.352 11.072 45.376c-2.656 5.312-38.528 42.368-120.064 124.048l-116.272 116.48 337.040 0.016c220.512 0 339.168 0.608 343.216 1.728 9.492 2.623 17.238 8.778 21.891 16.927l0.093 0.177c3.728 6.656 4.256 9.648 4.208 23.824-0.048 18.464-3.44 27.504-12.832 34.192-12.448 8.864 4 8.48-357.28 8.48h-336.336l116.272 116.48c81.536 81.68 117.408 118.736 120.064 124.048 7.52 15.024 3.712 30.592-11.072 45.376-14.496 14.496-31.296 18.432-46.128 10.8z" />
<glyph unicode="&#xe903;" glyph-name="arrow-right" d="M581.376 787.424c-8.8-4.64-20.496-16.56-25.088-25.552-2.29-4.446-3.633-9.703-3.633-15.273 0-5.62 1.367-10.921 3.786-15.588l-0.089 0.189c2.656-5.312 38.528-42.368 120.064-124.048l116.272-116.48h-336.336c-361.28 0-344.832 0.384-357.28-8.48-9.488-6.752-12.88-15.76-12.88-34.192 0-14.128 0.544-17.184 4.256-23.824 4.746-8.326 12.492-14.481 21.731-17.044l0.253-0.060c4.048-1.12 122.704-1.728 343.216-1.728l337.040-0.016-116.272-116.48c-81.536-81.68-117.408-118.736-120.064-124.048-7.52-15.024-3.712-30.592 11.072-45.376s30.352-18.592 45.376-11.072c5.344 2.672 51.808 47.824 157.808 153.376 82.624 82.272 152.416 151.040 155.088 152.816 6.56 4.336 15.072 23.248 15.072 33.456 0 10.912-8.448 28.992-15.952 34.096-3.168 2.176-72.976 70.96-155.104 152.864-100.928 100.64-151.664 150.080-156.528 152.496-9.376 4.672-22.912 4.656-31.808-0.032z" />
<glyph unicode="&#xe904;" glyph-name="arrow-up" d="M851.376 549.552c-2.176 4.224-60.16 63.632-152.416 156.16-81.904 82.128-150.688 151.936-152.864 155.104-5.104 7.504-23.184 15.952-34.096 15.952-10.208 0-29.12-8.512-33.456-15.072-1.776-2.672-70.544-72.464-152.816-155.088-105.552-106-150.704-152.464-153.376-157.808-7.52-15.024-3.712-30.592 11.072-45.376s30.352-18.592 45.376-11.072c5.312 2.656 42.368 38.528 124.048 120.064l116.48 116.272 0.016-337.040c0-220.512 0.608-339.168 1.728-343.216 1.248-4.616 3.403-8.939 6.339-12.714 2.938-3.774 6.597-6.926 10.765-9.27 6.656-3.728 9.648-4.256 23.824-4.208 18.464 0.048 27.504 3.44 34.192 12.832 8.864 12.448 8.48-4 8.48 357.28v336.336l116.48-116.272c81.68-81.536 118.736-117.408 124.048-120.064 15.024-7.52 30.592-3.712 45.376 11.072 14.496 14.496 18.432 31.296 10.8 46.128z" />
<glyph unicode="&#xe905;" glyph-name="bar-chart" d="M273.072 872.784c-69.936-7.904-133.936-53.168-165.312-116.944-7.738-15.397-14.103-33.288-18.186-52.031l-0.278-1.521c-2.928-13.632-3.104-28.864-3.104-254.288s0.176-240.656 3.104-254.288c18.48-86.352 82.064-149.936 168.416-168.416 13.632-2.928 28.864-3.104 254.288-3.104s240.656 0.176 254.288 3.104c65.216 13.968 118.96 54.496 148.176 111.76 8.714 16.336 15.701 35.273 19.981 55.214l0.259 1.442c2.928 13.632 3.104 28.864 3.104 254.288s-0.176 240.656-3.104 254.288c-12.048 56.272-44.56 105.12-89.904 135.104-32.16 21.264-59.888 31.52-95.936 35.456-20.032 2.192-456.304 2.128-475.792-0.064zM762.048 784.16c41.632-13.152 74.752-46.752 86.496-87.776l3.936-13.712v-469.344l-3.936-13.712c-11.856-41.392-45.072-74.896-87.376-88.096l-12.8-4h-472.736l-12.8 4c-42.304 13.2-75.52 46.704-87.376 88.096l-3.936 13.712v469.344l3.936 13.712c13.376 46.752 53.856 82.976 101.824 91.136 4.72 0.8 112.656 1.344 239.84 1.2l231.248-0.24 13.68-4.32zM666.176 658.88c-10.080-3.152-17.136-8.688-21.52-16.896l-3.808-7.104-0.448-183.168c-0.304-120.064 0.144-185.392 1.28-189.616 4.48-16.64 16.832-25.792 36.56-27.040 20.688-1.312 34.24 4.64 41.968 18.448l4.272 7.616v373.76l-3.808 7.104c-2.080 3.92-6.176 8.8-9.072 10.88-11.28 8.016-30.752 10.608-45.424 6.016zM495.52 530.88c-10.096-3.152-17.136-8.688-21.536-16.896l-3.792-7.104-0.48-119.12c-0.304-77.424 0.144-121.392 1.28-125.6 4.496-16.72 16.832-25.84 36.576-27.104 20.688-1.312 34.24 4.64 41.984 18.448l4.256 7.616v245.76l-3.792 7.104c-2.096 3.92-6.176 8.8-9.088 10.88-11.28 8.016-30.752 10.608-45.408 6.016zM324.848 402.88c-10.096-3.152-17.136-8.688-21.52-16.896-3.68-6.864-3.824-9.008-4.32-62.064-0.32-34.656 0.144-57.424 1.28-61.616 4.544-16.864 16.8-25.984 36.608-27.248 20.704-1.312 34.24 4.64 41.984 18.448l4.272 7.616v58.88c0 57.616-0.080 59.040-3.808 65.984-2.096 3.92-6.176 8.8-9.088 10.88-11.264 8.016-30.736 10.608-45.408 6.016z" />
<glyph unicode="&#xe906;" glyph-name="bell-off" d="M112.032 872.752c-8.784-4.64-20.48-16.56-25.072-25.552-2.295-4.445-3.641-9.702-3.641-15.273 0-5.621 1.37-10.922 3.794-15.587l-0.089 0.188c2.592-5.152 28.688-32.592 81.84-86.080l78.048-78.496-1.536-6.832c-0.848-3.76-2.080-35.632-2.736-70.832l-1.2-64-4.544-9.76c-7.52-16.128-14.416-24.688-45.136-56.128-32.192-32.928-43.264-47.92-51.92-70.288-16.976-43.84-15.28-87.744 4.72-122.384 3.616-6.256 12.8-17.456 21.072-25.696 11.616-11.552 17.68-16.080 29.056-21.664 26.528-13.008 12.272-12.368 276.672-12.368h235.968l82.816-82.592c56.896-56.736 85.184-83.776 90.384-86.384 15.024-7.52 30.592-3.728 45.376 11.072 14.784 14.768 18.592 30.32 11.088 45.376-5.2 10.464-782.688 788.144-793.136 793.328-9.392 4.672-22.928 4.64-31.824-0.048zM477.008 872.8c-42.864-4.464-86.464-19.248-117.488-39.84-14.256-9.472-19.040-17.392-19.040-31.552 0-26.096 22.608-50.304 44.224-47.344 4.24 0.576 17.152 5.92 29.44 12.176 37.216 18.912 74.608 25.744 118.784 21.712 47.84-4.384 78.752-17.216 107.664-44.672 20.544-19.504 34.304-41.44 43.808-69.808 9.712-28.976 10.56-36.656 11.904-107.712 0.976-51.952 1.792-67.664 3.936-75.088 10.896-37.904 24.88-58.976 69.68-104.976 15.6-16.032 30-32.352 32-36.272 5.008-9.824 8.752-25.008 8.752-35.552 0-19.648 10.080-35.68 25.040-39.824 8.384-2.336 26.864-2.336 35.232 0 21.952 6.096 29.888 31.776 21.824 70.704-7.952 38.432-19.552 57.584-59.936 98.992-31.344 32.144-38.208 40.672-45.728 56.784l-4.56 9.76-1.056 63.152c-0.816 48.032-1.744 66.816-3.92 78.512-13.168 70.928-43.632 126.288-90.64 164.608-30.72 25.056-68.544 42.88-108.784 51.264-30.432 6.336-69.456 8.256-101.136 4.976zM432.224 277.68c-127.808-0.336-191.024 0.080-195.216 1.296-7.84 2.256-19.408 14.624-21.824 23.344-3.648 13.12-0.912 31.824 6.896 47.104 2 3.92 16.4 20.24 32 36.272 31.68 32.528 44.752 48.88 55.6 69.584 14.4 27.44 17.968 44.784 17.984 87.44l0.016 29.008 293.552-293.536-189.008-0.512zM411.824 146.88c-10.656-4.96-23.072-16.032-26.816-23.904-7.76-16.384-0.224-35.904 22.736-58.848 56.976-56.912 151.536-56.912 208.512 0 29.552 29.536 33.472 52.176 12.4 71.6-15.456 14.256-34.464 18.992-48.128 12.032-3.536-1.808-11.76-9.232-18.256-16.496-16.576-18.512-27.648-23.744-50.272-23.744s-33.696 5.232-50.272 23.744c-6.496 7.264-14.72 14.688-18.256 16.496-8.88 4.528-20.72 4.208-31.648-0.88z" />
<glyph unicode="&#xe907;" glyph-name="bell" d="M478.112 872.832c-53.216-5.136-102.432-24.768-141.040-56.272-47.008-38.32-77.472-93.68-90.64-164.608-2.176-11.696-3.104-30.48-3.92-78.512l-1.056-63.152-4.56-9.76c-7.536-16.144-14.416-24.704-45.136-56.128-32.192-32.928-43.264-47.92-51.92-70.288-16.976-43.84-15.28-87.744 4.72-122.384 3.616-6.256 12.8-17.456 21.072-25.696 11.616-11.552 17.68-16.080 29.056-21.664 26.736-13.12 7.616-12.368 317.312-12.368s290.576-0.752 317.312 12.368c11.376 5.584 17.44 10.112 29.056 21.664 8.272 8.24 17.456 19.44 21.072 25.696 24.208 41.936 21.168 99.968-7.712 146.896-6.384 10.368-16.912 22.592-38.8 45.040-31.44 32.224-38.304 40.736-45.824 56.864l-4.56 9.76-1.056 63.152c-1.136 67.040-2.096 76.592-11.104 109.936-5.784 21.084-13.049 39.365-22.038 56.604l0.742-1.564c-48.272 96.016-149.344 146.144-270.976 134.416zM538.944 787.52c43.28-4.72 74.224-18.192 101.648-44.24 20.544-19.504 34.304-41.44 43.808-69.808 9.712-28.976 10.56-36.656 11.904-107.712 0.976-51.952 1.792-67.664 3.936-75.088 10.896-37.904 24.88-58.976 69.68-104.976 15.6-16.032 30-32.352 32-36.272 7.792-15.264 10.544-33.984 6.912-47.040-2.208-7.936-12.4-19.632-19.872-22.752-8.16-3.408-545.76-3.408-553.92 0-7.472 3.12-17.664 14.816-19.872 22.752-3.632 13.056-0.88 31.776 6.912 47.040 2 3.92 16.4 20.24 32 36.272 44.8 46 58.784 67.072 69.68 104.976 2.144 7.424 2.96 23.136 3.936 75.088 1.264 66.368 1.952 73.872 9.088 99.84 13.632 49.536 51.424 92.384 97.168 110.144 29.936 11.616 67.68 15.856 104.992 11.776zM411.824 146.88c-10.656-4.96-23.072-16.032-26.816-23.904-7.76-16.384-0.224-35.904 22.736-58.848 56.976-56.912 151.536-56.912 208.512 0 29.552 29.536 33.472 52.176 12.4 71.6-15.456 14.256-34.464 18.992-48.128 12.032-3.536-1.808-11.76-9.232-18.256-16.496-16.576-18.512-27.648-23.744-50.272-23.744s-33.696 5.232-50.272 23.744c-6.496 7.264-14.72 14.688-18.256 16.496-8.88 4.528-20.72 4.208-31.648-0.88z" />
<glyph unicode="&#xe908;" glyph-name="calendar" d="M324.848 872.224c-15.136-4.736-23.696-15.28-25.632-31.584l-0.976-8.176-19.84-2.016c-40.336-4.080-71.712-15.92-104.832-39.536-42.704-30.448-72.688-77.152-84.272-131.28-2.912-13.6-3.104-28.16-3.104-232.96s0.192-219.36 3.104-232.96c18.48-86.352 82.064-149.936 168.416-168.416 13.632-2.928 28.864-3.104 254.288-3.104s240.656 0.176 254.288 3.104c65.216 13.968 118.96 54.496 148.176 111.76 8.714 16.336 15.701 35.273 19.981 55.214l0.259 1.442c2.912 13.6 3.104 28.16 3.104 232.96s-0.192 219.36-3.104 232.96c-12.048 56.256-44.56 105.12-89.904 135.104-33.28 21.984-60.496 31.792-99.232 35.712l-19.856 2.016-1.136 8.544c-2.848 21.52-17.968 33.664-41.904 33.664-24.032 0-39.584-12.656-42.144-34.256l-1.008-8.416h-255.088l-1.152 8.784c-1.488 11.216-6.32 20.64-13.024 25.408-11.264 8.032-30.736 10.608-45.408 6.032zM298.672 720.64c0.016-14.32 0.784-28.8 1.728-32.208 4.56-16.416 16.928-25.456 36.496-26.704 20.704-1.312 34.24 4.64 41.984 18.448 4 7.152 4.304 9.392 4.864 37.056l0.592 29.44h255.664l0.016-26.032c0-14.32 0.768-28.8 1.712-32.208 4.576-16.416 16.928-25.456 36.512-26.704 20.688-1.312 34.24 4.64 41.968 18.448 4.016 7.152 4.304 9.392 4.864 37.248l0.608 29.648 12.016-1.184c52.016-5.12 96.528-42.128 110.848-92.16l3.936-13.728v-426.672l-3.936-13.712c-11.856-41.392-45.072-74.896-87.376-88.096l-12.8-4h-472.736l-12.8 4c-42.304 13.2-75.52 46.704-87.376 88.096l-3.936 13.712v426.672l3.936 13.728c14.88 51.936 64.192 91.104 116.816 92.736l6.4 0.208v-26.032zM282.176 573.552c-10.096-3.152-17.136-8.688-21.52-16.896-3.152-5.92-3.792-9.84-3.792-23.328-0.016-14.128 0.544-17.184 4.256-23.824 4.704-8.384 12.528-14.48 21.984-17.104 8.48-2.352 449.312-2.352 457.792 0 9.49 2.628 17.234 8.782 21.891 16.927l0.093 0.177c3.728 6.656 4.256 9.648 4.224 23.824-0.048 18.464-3.456 27.52-12.848 34.192-12.272 8.752-4.832 8.496-242.96 8.368-177.232-0.096-223.456-0.56-229.12-2.336zM666.176 274.88c-10.096-3.152-17.136-8.688-21.52-16.896-3.152-5.904-3.792-9.84-3.792-23.312-0.016-14.144 0.544-17.2 4.256-23.84 4.704-8.384 12.528-14.464 21.984-17.104 8.016-2.224 65.776-2.224 73.792 0 9.488 2.633 17.23 8.785 21.891 16.927l0.093 0.177c3.728 6.672 4.256 9.664 4.224 23.84-0.048 13.344-0.704 17.456-3.808 23.312-4.448 8.416-11.408 13.76-22.144 16.992-10.432 3.136-64.848 3.072-74.976-0.096z" />
<glyph unicode="&#xe909;" glyph-name="category" d="M228.624 872.064c-69.456-10.832-125.488-64.992-139.76-135.088-5.104-25.056-5.104-83.568 0-108.608 11.696-57.408 49.76-103.328 103.664-125.072 24.864-10.016 42.384-12.624 84.8-12.624 30.208 0 40.080 0.624 53.648 3.392 69.408 14.144 120.816 65.552 134.96 134.96 4.896 24 4.896 83.28 0 107.296-8.496 41.76-30.88 77.984-63.232 102.352-24.432 18.4-49.6 29.184-78.24 33.504-20.56 3.088-75.664 3.040-95.84-0.112zM697.952 872.064c-69.44-10.832-125.472-64.992-139.76-135.088-5.104-25.056-5.104-83.568 0-108.608 11.696-57.408 49.76-103.328 103.664-125.072 24.864-10.016 42.4-12.624 84.816-12.624 30.208 0 40.064 0.624 53.648 3.392 69.392 14.144 120.816 65.552 134.96 134.96 2.768 13.568 3.392 23.44 3.392 53.648 0 42.368-2.624 59.984-12.592 84.624-22.736 56.288-72.704 95.888-132.272 104.88-20.56 3.088-75.68 3.040-95.856-0.112zM320.992 786.208c14.624-3.824 28.784-12.48 39.712-24.272 18.832-20.304 23.232-35.344 23.232-79.264 0-45.504-4.544-59.984-25.52-81.264-12.016-12.176-23.328-18.848-38.752-22.864-13.664-3.552-70.992-3.552-84.672 0-29.216 7.616-53.728 31.824-61.2 60.464-4.016 15.408-4.304 68.496-0.464 85.408 6.512 28.656 31.52 54.272 60.352 61.792 8.704 2.272 18.496 2.928 43.648 2.928 25.168 0 34.944-0.656 43.664-2.928zM790.32 786.208c14.624-3.824 28.784-12.48 39.728-24.272 18.816-20.304 23.232-35.344 23.232-79.264 0-45.504-4.56-59.984-25.536-81.264-12-12.176-23.312-18.848-38.736-22.864-13.68-3.552-71.008-3.552-84.672 0-29.216 7.616-53.728 31.824-61.2 60.464-4.032 15.408-4.32 68.496-0.48 85.408 6.528 28.656 31.536 54.272 60.352 61.792 8.72 2.272 18.496 2.928 43.664 2.928 25.152 0 34.944-0.656 43.648-2.928zM228.624 402.736c-69.456-10.832-125.488-64.992-139.76-135.104-5.104-25.040-5.104-83.552 0-108.608 11.696-57.408 49.76-103.328 103.664-125.056 24.864-10.016 42.384-12.64 84.8-12.64 30.208 0 40.080 0.624 53.648 3.392 69.408 14.144 120.816 65.568 134.96 134.96 4.896 24.016 4.896 83.296 0 107.296-8.496 41.76-30.88 77.984-63.232 102.368-24.432 18.4-49.6 29.184-78.24 33.488-20.56 3.104-75.664 3.040-95.84-0.096zM697.952 402.736c-69.44-10.832-125.472-64.992-139.76-135.104-5.104-25.040-5.104-83.552 0-108.608 11.696-57.408 49.76-103.328 103.664-125.056 24.864-10.016 42.4-12.64 84.816-12.64 30.208 0 40.064 0.624 53.648 3.392 69.392 14.144 120.816 65.568 134.96 134.96 2.768 13.584 3.392 23.44 3.392 53.648 0 42.368-2.624 59.984-12.592 84.64-22.736 56.272-72.704 95.888-132.272 104.864-20.56 3.104-75.68 3.040-95.856-0.096zM320.992 316.864c14.624-3.808 28.784-12.464 39.712-24.256 18.832-20.304 23.232-35.36 23.232-79.28 0-45.504-4.544-59.984-25.52-81.248-12.016-12.176-23.328-18.848-38.752-22.864-13.664-3.568-70.992-3.568-84.672 0-29.216 7.6-53.728 31.824-61.2 60.464-4.016 15.408-4.304 68.48-0.464 85.392 6.512 28.672 31.52 54.272 60.352 61.792 8.704 2.288 18.496 2.944 43.648 2.944 25.168 0 34.944-0.656 43.664-2.944zM790.32 316.864c14.624-3.808 28.784-12.464 39.728-24.256 18.816-20.304 23.232-35.36 23.232-79.28 0-45.504-4.56-59.984-25.536-81.248-12-12.176-23.312-18.848-38.736-22.864-13.68-3.568-71.008-3.568-84.672 0-29.216 7.6-53.728 31.824-61.2 60.464-4.032 15.408-4.32 68.48-0.48 85.392 6.528 28.672 31.536 54.272 60.352 61.792 8.72 2.288 18.496 2.944 43.664 2.944 25.152 0 34.944-0.656 43.648-2.944z" />
<glyph unicode="&#xe90a;" glyph-name="check-box" d="M273.072 872.784c-69.936-7.904-133.936-53.168-165.312-116.944-7.738-15.397-14.103-33.288-18.186-52.031l-0.278-1.521c-2.928-13.632-3.104-28.864-3.104-254.288s0.176-240.656 3.104-254.288c18.48-86.352 82.064-149.936 168.416-168.416 13.632-2.928 28.864-3.104 254.288-3.104s240.656 0.176 254.288 3.104c65.216 13.968 118.96 54.496 148.176 111.76 8.714 16.336 15.701 35.273 19.981 55.214l0.259 1.442c2.928 13.632 3.104 28.864 3.104 254.288s-0.176 240.656-3.104 254.288c-12.048 56.272-44.56 105.12-89.904 135.104-32.16 21.264-59.888 31.52-95.936 35.456-20.032 2.192-456.304 2.128-475.792-0.064zM762.048 784.16c41.632-13.152 74.752-46.752 86.496-87.776l3.936-13.712v-469.344l-3.936-13.712c-11.856-41.392-45.072-74.896-87.376-88.096l-12.8-4h-472.736l-12.8 4c-42.304 13.2-75.52 46.704-87.376 88.096l-3.936 13.712v469.344l3.936 13.712c13.376 46.752 53.856 82.976 101.824 91.136 4.72 0.8 112.656 1.344 239.84 1.2l231.248-0.24 13.68-4.32zM670.72 619.2c-8.88-3.168-23.472-19.504-107.952-120.848-89.116-108.436-120.452-145.769-151.848-183.049l56.056 68.345c-1.456-1.552-13.776 8.752-51.408 43.008-27.216 24.784-53.216 47.104-57.76 49.6-15.712 8.656-33.088 4.784-47.2-10.544-18.208-19.744-18.352-39.888-0.432-58.256 10.112-10.368 131.616-120.272 138.016-124.832 12.48-8.896 28.464-9.488 41.36-1.504 7.232 4.464 229.808 270.896 234.224 280.368 9.472 20.32-0.464 41.28-26.048 54.96-7.056 3.776-20.32 5.12-27.008 2.752z" />
<glyph unicode="&#xe90b;" glyph-name="check-circle" d="M472.752 872.768c-67.12-5.936-136.416-30.128-193.712-67.632-27.104-17.728-44.416-31.92-69.168-56.704-83.888-83.952-127.968-195.648-123.984-314.080 3.040-90.4 31.52-171.024 86.208-244.064 16.928-22.608 54.24-60.768 75.376-77.088 61.504-47.52 127.424-75.808 204.8-87.888 27.584-4.304 91.872-4.304 119.456 0 95.504 14.912 175.088 54.896 241.568 121.392 66.496 66.48 106.48 146.064 121.392 241.568 4.304 27.584 4.304 91.872 0 119.456-12.080 77.392-40.432 143.44-87.904 204.8-14.368 18.576-51.536 55.728-70.256 70.208-88.176 68.272-194.288 99.712-303.776 90.032zM543.328 787.568c78.512-7.44 149.088-39.856 205.664-94.48 64.174-62.011 104.019-148.846 104.019-244.988 0-54.383-12.749-105.789-35.421-151.392l0.891 1.98c-18.512-37.872-40.976-68.512-71.984-98.192-26.464-25.312-52.656-43.424-86.384-59.712-43.263-21.492-94.219-34.068-148.112-34.068s-104.849 12.576-150.093 34.954l1.981-0.886c-44.864 21.664-81.76 50.56-114.432 89.616-85.264 101.952-102.688 247.392-43.968 366.928 57.424 116.896 172.832 189.92 303.104 191.776 8.912 0.128 24.544-0.56 34.736-1.536zM670.72 619.2c-8.88-3.168-23.472-19.504-107.952-120.848-89.116-108.436-120.452-145.769-151.848-183.049l56.056 68.345c-1.456-1.552-13.776 8.752-51.408 43.008-27.216 24.784-53.216 47.104-57.76 49.6-15.712 8.656-33.088 4.784-47.2-10.544-18.208-19.744-18.352-39.888-0.432-58.256 10.112-10.368 131.616-120.272 138.016-124.832 12.48-8.896 28.464-9.488 41.36-1.504 7.232 4.464 229.808 270.896 234.224 280.368 9.472 20.32-0.464 41.28-26.048 54.96-7.056 3.776-20.32 5.12-27.008 2.752z" />
<glyph unicode="&#xe90c;" glyph-name="check" d="M798.72 704.528c-8.912-3.152-32.672-29.328-190.528-209.728l-175.184-200.224-17.248 15.072c-102.848 89.904-180.8 156.208-187.824 159.728-15.296 7.664-27.312 5.040-42.448-9.28-11.232-10.624-16.704-21.168-16.784-32.336-0.080-8.864 1.456-12.912 8.336-22.128 3.824-5.136 222.64-195.792 238.224-207.584 13.152-9.936 29.040-10.56 42.592-1.648 9.184 6.048 390.080 441.744 394.112 450.816 3.984 8.992 4.304 19.856 0.816 28.192-3.52 8.4-17.104 21.808-26.864 26.528-7.44 3.6-20.784 4.864-27.2 2.592z" />
<glyph unicode="&#xe90d;" glyph-name="chevron-down" d="M172.608 559.792c5.216-10.144 314.048-318.528 323.92-323.456 4.8-2.414 10.099-3.672 15.472-3.672s10.672 1.258 15.472 3.672c10.72 5.344 318.848 313.472 324.192 324.192 7.488 15.040 3.696 30.608-11.088 45.376-14.784 14.8-30.352 18.592-45.376 11.088-5.36-2.688-48-44.16-145.392-141.408l-137.808-137.616-137.808 137.616c-97.392 97.248-140.032 138.72-145.392 141.408-15.024 7.504-30.592 3.712-45.376-11.088-14.496-14.48-18.432-31.28-10.816-46.112z" />
<glyph unicode="&#xe90e;" glyph-name="chevron-left" d="M623.792 787.392c-10.144-5.216-318.528-314.048-323.456-323.92-2.315-4.505-3.672-9.83-3.672-15.472s1.357-10.967 3.762-15.666l-0.090 0.194c5.344-10.72 313.472-318.848 324.192-324.192 15.040-7.488 30.608-3.696 45.376 11.088 14.8 14.784 18.592 30.352 11.088 45.376-2.688 5.36-44.16 48-141.408 145.392l-137.616 137.808 137.616 137.808c97.248 97.392 138.72 140.032 141.408 145.392 7.504 15.024 3.712 30.592-11.088 45.376-14.48 14.496-31.28 18.432-46.112 10.816z" />
<glyph unicode="&#xe90f;" glyph-name="chevron-right" d="M368.032 787.424c-8.784-4.64-20.48-16.56-25.072-25.552-2.292-4.451-3.635-9.713-3.635-15.289 0-5.613 1.361-10.908 3.772-15.573l-0.089 0.19c2.688-5.36 44.16-48 141.408-145.392l137.616-137.808-137.616-137.808c-97.248-97.392-138.72-140.032-141.408-145.392-7.504-15.024-3.712-30.592 11.088-45.376 14.768-14.784 30.336-18.576 45.376-11.088 10.72 5.344 318.848 313.472 324.192 324.192 2.256 4.528 3.776 10.752 3.776 15.472s-1.52 10.944-3.776 15.472c-5.184 10.384-313.456 318.832-323.808 324-9.376 4.656-22.928 4.64-31.824-0.048z" />
<glyph unicode="&#xe910;" glyph-name="chevron-up" d="M851.392 336.208c-5.216 10.144-314.048 318.528-323.92 323.456-4.8 2.414-10.099 3.672-15.472 3.672s-10.672-1.258-15.472-3.672c-10.72-5.344-318.848-313.472-324.192-324.192-7.488-15.040-3.696-30.608 11.088-45.376 14.784-14.8 30.352-18.592 45.376-11.088 5.36 2.688 48 44.16 145.392 141.408l137.808 137.616 137.808-137.616c97.392-97.248 140.032-138.72 145.392-141.408 15.024-7.504 30.592-3.712 45.376 11.088 14.496 14.48 18.432 31.28 10.816 46.112z" />
<glyph unicode="&#xe911;" glyph-name="clock" d="M472.752 872.768c-79.968-7.072-158.672-38.512-225.28-90.016-33.92-26.208-76.16-73.808-99.424-112.032-58.176-95.584-76.976-211.76-51.632-319.152 18.752-79.456 56.432-146.992 114.304-204.848 67.808-67.824 149.232-108.048 247.52-122.304 23.472-3.408 89.136-2.88 113.488 0.912 95.376 14.832 175.088 54.88 241.568 121.376 66.496 66.48 106.48 146.064 121.392 241.568 4.304 27.584 4.304 91.872 0 119.456-12.080 77.392-40.432 143.44-87.904 204.8-14.368 18.576-51.536 55.728-70.256 70.208-88.176 68.272-194.288 99.712-303.776 90.032zM543.328 787.568c78.512-7.44 149.088-39.856 205.664-94.48 64.174-62.011 104.019-148.846 104.019-244.988 0-54.383-12.749-105.789-35.421-151.392l0.891 1.98c-18.512-37.872-40.976-68.512-71.984-98.192-26.464-25.312-52.656-43.424-86.384-59.712-43.263-21.492-94.219-34.068-148.112-34.068s-104.849 12.576-150.093 34.954l1.981-0.886c-44.864 21.664-81.76 50.56-114.432 89.616-85.264 101.952-102.688 247.392-43.968 366.928 57.424 116.896 172.832 189.92 303.104 191.776 8.912 0.128 24.544-0.56 34.736-1.536zM495.52 658.88c-10.096-3.152-17.136-8.688-21.536-16.896-3.744-7.008-3.808-8.336-4.976-99.264l-1.264-97.744c-0.16-7.968 8.704-26.544 14.496-30.432 2.656-1.776 24.448-22.528 48.432-46.112 46.288-45.488 52.928-50.528 66.656-50.528 20.352 0 44.768 24.416 44.768 44.768 0 13.696-5.072 20.448-47.456 63.136l-39.824 40.112-0.496 84.48c-0.496 83.616-0.544 84.56-4.304 91.584-2.096 3.92-6.176 8.8-9.088 10.88-11.28 8.016-30.752 10.608-45.408 6.016z" />
<glyph unicode="&#xe912;" glyph-name="close" d="M240.032 744.752c-8.784-4.64-20.48-16.56-25.072-25.552-2.29-4.446-3.633-9.703-3.633-15.273 0-5.62 1.367-10.921 3.786-15.588l-0.089 0.189c2.656-5.312 38.512-42.368 120.048-124.048l116.288-116.48-116.288-116.48c-81.536-81.68-117.392-118.736-120.048-124.048-7.52-15.040-3.728-30.592 11.072-45.376 14.784-14.8 30.336-18.592 45.376-11.072 5.312 2.656 42.368 38.512 124.048 120.048l116.48 116.288 116.48-116.288c81.68-81.536 118.736-117.392 124.048-120.048 15.040-7.52 30.592-3.728 45.376 11.072 14.8 14.784 18.592 30.336 11.072 45.376-2.656 5.312-38.512 42.368-120.048 124.048l-116.288 116.48 116.288 116.48c81.536 81.68 117.392 118.736 120.048 124.048 7.52 15.040 3.728 30.592-11.072 45.376-14.512 14.528-30.752 18.384-45.76 10.88-4.816-2.4-45.664-42-123.664-119.856l-116.48-116.288-116.48 116.288c-78 77.856-118.848 117.456-123.664 119.856-9.376 4.688-22.912 4.672-31.824-0.032z" />
<glyph unicode="&#xe913;" glyph-name="copy" d="M228.624 872.064c-69.456-10.832-125.488-64.992-139.76-135.088-3.376-16.528-3.536-22.736-3.536-139.648 0-116.896 0.16-123.104 3.536-139.632 16.752-82.272 89.2-140.032 172.256-137.344 20.992 0.672 26.928 2.528 36.304 11.296 12.864 12.032 12.864 50 0 62.032-9.024 8.448-15.136 10.288-38.768 11.68-16.016 0.96-24.976 2.336-31.856 4.944-18.592 7.040-34 20.192-44.832 38.288-11.216 18.704-11.312 20.016-11.2 149.936 0.080 104.48 0.4 117.728 3.024 127.792 7.52 28.832 33.136 53.84 61.792 60.352 17.472 3.968 236.688 3.968 254.16 0 20.368-4.624 38.864-18.032 51.504-37.312 8.96-13.664 11.648-23.568 13.248-48.768 1.424-22.608 3.424-29.056 11.824-38.016 12.032-12.864 50-12.864 62.032 0 8.768 9.376 10.624 15.312 11.296 36.304 1.76 54.304-23.488 107.552-66.288 139.792-24.416 18.4-49.584 29.184-78.224 33.504-22.784 3.424-244.368 3.344-266.512-0.112zM527.296 573.392c-69.456-10.832-125.488-64.976-139.776-135.088-3.36-16.528-3.52-22.736-3.52-139.632 0-116.912 0.16-123.12 3.52-139.648 9.963-48.505 39.203-88.783 79.181-113.219l0.755-0.429c14.048-8.464 36.432-16.896 54.896-20.656 15.68-3.2 23.632-3.392 138.976-3.392s123.296 0.192 138.992 3.392c69.392 14.144 120.816 65.568 134.96 134.96 3.2 15.696 3.392 23.648 3.392 138.992s-0.192 123.296-3.392 138.976c-12.496 61.296-54.784 109.328-114.176 129.648-23.536 8.064-35.424 8.688-161.472 8.528-88.976-0.112-121.328-0.704-132.336-2.432zM790.32 487.536c29.408-7.664 54.272-33.552 60.496-62.944 3.616-17.024 3.616-234.816 0-251.84-3.328-15.776-9.872-27.296-23.072-40.672-12-12.176-23.312-18.848-38.736-22.864-14.544-3.792-240.8-3.792-255.344 0-29.216 7.6-53.728 31.824-61.2 60.464-2.624 10.064-2.944 23.312-3.040 127.792-0.096 129.92 0 131.232 11.2 149.936 12.032 20.064 30.864 34.688 51.712 40.128 10.096 2.64 23.184 2.928 128.992 2.928 105.824 0 118.912-0.288 128.992-2.928z" />
<glyph unicode="&#xe914;" glyph-name="dollar-sign" d="M909.402 443.834c0-219.479-177.923-397.402-397.402-397.402s-397.402 177.923-397.402 397.402c0 219.479 177.923 397.402 397.402 397.402v0c0.015 0 0.033 0 0.050 0 219.452 0 397.352-177.901 397.352-397.352 0-0.018 0-0.036 0-0.053v0.003zM666.253 355.79c-0.045 28.457-10.613 54.438-28.019 74.267l0.11-0.128-0.050 0.1c-11.753 13.338-25.615 24.479-41.126 32.985l-0.788 0.396-0.151 0.1c-12.519 6.654-27.033 12.066-42.298 15.491l-1.172 0.221h-0.1c-11.886 2.649-25.538 4.167-39.545 4.167-0.127 0-0.254 0-0.381 0h0.020c-0.254-0.002-0.554-0.003-0.854-0.003-8.118 0-16.078 0.676-23.827 1.976l0.838-0.116c-9.293 1.577-17.62 4.339-25.322 8.167l0.526-0.236-0.1 0.050c-7.347 3.799-13.539 8.821-18.544 14.861l-0.079 0.098-0.050 0.050c-5.1 5.937-8.35 13.595-8.781 21.997l-0.004 0.089c0.843 13.915 9.136 25.713 20.912 31.525l0.22 0.098c15.695 9.371 34.618 14.912 54.834 14.912 0.311 0 0.621-0.001 0.931-0.004h-0.047c7.275-0.597 13.963-1.77 20.427-3.495l-0.801 0.182 2.46-0.502c9.088-2.215 16.998-5.071 24.492-8.655l-0.75 0.323c7.389-3.4 13.714-7.797 19.136-13.112l-0.011 0.011c7.291-7.92 17.709-12.865 29.282-12.865 21.956 0 39.755 17.799 39.755 39.755 0 11.598-4.966 22.036-12.888 29.303l-0.029 0.026c-12.034 11.944-26.154 21.807-41.762 28.991l-0.905 0.373c-11.219 5.343-24.362 9.964-38.045 13.183l-1.359 0.27h-0.050l-0.402 0.1v39.454c0.016 0.421 0.025 0.916 0.025 1.412 0 21.956-17.799 39.755-39.755 39.755s-39.755-17.799-39.755-39.755c0-0.497 0.009-0.991 0.027-1.484l-0.002 0.071v-38.3c-21.627-4.599-40.781-12.49-57.976-23.227l0.752 0.438c-34.389-20.223-57.312-56.708-58.175-98.614l-0.002-0.122c0.325-27.599 10.302-52.806 26.703-72.467l-0.149 0.184c12.164-14.873 27.106-26.977 44.1-35.632l0.776-0.359c13.688-6.979 29.567-12.312 46.292-15.17l0.993-0.14c10.838-1.886 23.318-2.963 36.050-2.963 0.314 0 0.629 0.001 0.943 0.002h-0.049c0.181 0.001 0.394 0.002 0.608 0.002 7.96 0 15.724-0.841 23.207-2.44l-0.725 0.13c8.869-1.979 16.694-4.883 23.975-8.687l-0.534 0.254c7.439-4.172 13.775-9.324 19.106-15.381l0.069-0.080c5.083-5.831 8.207-13.487 8.282-21.87v-0.016c0-4.869 0-16.264-19.325-28.762-16.144-9.899-35.69-15.762-56.606-15.762-0.076 0-0.152 0-0.227 0h0.012c-9.107 0.466-17.62 1.541-25.922 3.199l1.125-0.187c-8.79 1.903-16.488 4.461-23.798 7.732l0.758-0.303h-0.050c-7.146 3.223-13.131 7.889-17.799 13.663l-0.071 0.090c-7.343 8.76-18.29 14.291-30.529 14.291-21.956 0-39.755-17.799-39.755-39.755 0-10.24 3.872-19.576 10.231-26.624l-0.031 0.035c12.926-15.328 29.193-27.422 47.709-35.228l0.83-0.311c11.103-4.901 24.113-9.014 37.639-11.696l1.213-0.201h0.351v-39.304c-0.016-0.421-0.025-0.916-0.025-1.412 0-21.956 17.799-39.755 39.755-39.755s39.755 17.799 39.755 39.755c0 0.497-0.009 0.991-0.027 1.484l0.002-0.071v39.655c22.229 4.857 41.882 13.178 59.442 24.473l-0.713-0.429c33.201 19.435 55.227 54.794 55.567 95.324v0.049z" />
<glyph unicode="&#xe915;" glyph-name="edit" d="M273.072 872.784c-69.936-7.904-133.936-53.168-165.312-116.944-7.738-15.397-14.103-33.288-18.186-52.031l-0.278-1.521c-2.928-13.632-3.104-28.864-3.104-254.288s0.176-240.656 3.104-254.288c18.48-86.352 82.064-149.936 168.416-168.416 13.632-2.928 28.864-3.104 254.288-3.104s240.656 0.176 254.288 3.104c65.216 13.968 118.96 54.496 148.176 111.76 8.714 16.336 15.701 35.273 19.981 55.214l0.259 1.442c2.88 13.392 3.104 25.872 3.104 163.84v149.328l-3.792 7.104c-4.512 8.432-11.472 13.76-22.192 16.992-21.728 6.544-45.216-0.88-53.84-16.992l-3.792-7.104-0.896-147.632-0.88-147.616-4.288-13.68c-12.96-41.344-45.2-73.392-86.96-86.432l-12.8-4h-472.736l-12.8 4c-42.304 13.2-75.52 46.704-87.376 88.096l-3.936 13.712v469.344l3.936 13.712c11.744 41.040 44.96 74.736 86.496 87.744l13.68 4.288 147.616 0.88c146.832 0.88 147.664 0.912 154.464 4.544 14.288 7.664 18.688 16.656 18.688 38.16-0.016 18.464-3.392 27.488-12.8 34.192-11.984 8.528-11.216 8.496-159.344 8.256-76.112-0.128-144.144-0.88-151.184-1.664zM798.32 873.024c-22.944-4.192-40.72-13.312-61.168-31.376-7.904-6.992-90.464-89.008-183.456-182.272-126.032-126.368-169.808-171.296-171.92-176.384-4.144-9.968-40.448-156.784-40.448-163.552 0-15.008 9.152-32.112 20.624-38.56 11.888-6.688 19.248-5.6 102.256 15.12 41.776 10.416 79.024 20.208 82.784 21.776 5.088 2.112 50.016 45.888 176.384 171.92 93.264 92.992 175.344 175.6 182.384 183.584 15.344 17.36 21.184 27.040 27.264 45.232 3.952 11.872 4.56 16.528 4.672 35.84 0.096 18.656-0.512 24.208-3.856 34.976-6.208 19.936-14.528 33.328-30.864 49.632-23.856 23.808-46.256 33.76-78.496 34.896-9.952 0.352-21.712-0.016-26.16-0.832zM837.168 783.648c13.040-8.848 18.528-23.552 14.464-38.704-1.792-6.656-6.624-12.272-36.832-42.656l-34.784-34.976-48.704 48.704 34.976 34.8c25.28 25.12 36.656 35.296 40.96 36.592 9.296 2.816 22.736 1.136 29.92-3.76zM695.488 630.592l23.856-23.904-213.312-212.656-30.384-7.344c-16.704-4.048-30.816-6.928-31.344-6.384-0.544 0.528 2.336 14.64 6.384 31.344l7.344 30.384 105.904 106.24c58.24 58.432 106.304 106.24 106.784 106.24 0.496 0 11.632-10.768 24.768-23.92z" />
<glyph unicode="&#xe916;" glyph-name="eye-off" d="M112.032 872.752c-8.784-4.64-20.48-16.56-25.072-25.552-2.295-4.445-3.641-9.702-3.641-15.273 0-5.621 1.37-10.922 3.794-15.587l-0.089 0.188c2.608-5.2 29.504-33.344 85.808-89.792l82-82.24-5.792-4.8c-24.736-20.576-44.032-38.432-69.024-63.936-62-63.216-75.904-86.624-75.904-127.76 0-29.744 9.264-52.768 32.592-81.072 21.76-26.384 86.352-89.936 112.464-110.672 55.568-44.112 108.064-73.424 162.208-90.592 88.608-28.080 175.232-19.424 265.888 26.56l19.808 10.048 87.952-87.728c60.656-60.512 90.288-88.896 95.504-91.52 15.024-7.52 30.592-3.728 45.376 11.072 14.784 14.768 18.592 30.32 11.088 45.376-5.2 10.464-782.688 788.144-793.136 793.328-9.392 4.672-22.928 4.64-31.824-0.048zM478.992 744.752c-8.304-0.8-17.984-2.224-21.504-3.184-9.408-2.528-19.696-10.704-25.168-20-4.112-7.008-4.8-10.016-4.8-20.976 0-10.928 0.704-13.984 4.736-20.848 5.664-9.664 13.28-15.776 24.272-19.52 7.248-2.48 10.608-2.544 30.864-0.576 34.576 3.328 63.76 0.224 98.848-10.512 72.048-22.064 157.392-84.256 228.032-166.176 17.040-19.744 20.288-25.36 20.288-34.96 0-11.888-4.048-17.536-42.816-59.728-18.432-20.064-21.776-25.488-23.216-37.6-1.552-13.088 2.096-23.12 12.176-33.456 6.816-7.008 10.72-9.472 18.592-11.744 19.408-5.6 30.128-0.72 54.896 24.944 51.76 53.68 65.696 78.624 65.696 117.584 0 40.784-13.904 64.432-74.192 126.112-30.672 31.36-58.24 56.224-83.84 75.616-96.448 73.040-188.848 104.080-282.864 95.024zM475.232 424.192l158.624-158.64-11.856-5.376c-16.784-7.616-48.752-17.936-66.64-21.52-21.040-4.224-65.68-4.224-86.72 0-85.632 17.168-178.288 80.432-264.096 180.336-5.248 6.096-10.784 13.552-12.32 16.544-3.568 6.992-3.568 17.936 0 24.928 6.032 11.824 52.112 61.728 79.856 86.48 19.68 17.552 41.952 35.888 43.616 35.888 0.496 0 72.288-71.392 159.536-158.64zM378.432 456.48c-14.96-3.76-27.488-13.44-31.408-24.256-3.232-8.912-2.592-18.896 2.192-34.048 14.368-45.552 44.64-81.296 86.832-102.496 14.832-7.44 38.208-14.944 46.608-14.928 21.984 0.032 36.752 16.72 39.056 44.128 0.848 10.032 0.416 13.040-2.768 19.616-4.544 9.392-14.528 16.48-30.576 21.696-28.832 9.376-46.464 26.448-56.864 55.040-10.16 27.984-17.408 35.264-36.096 36.288-5.808 0.32-13.44-0.144-16.976-1.040z" />
<glyph unicode="&#xe917;" glyph-name="eye" d="M481.84 744.8c-22.384-2-55.616-9.2-78.752-17.072-41.424-14.112-97.392-45.024-140.224-77.456-49.232-37.28-118.656-106.816-141.68-141.904-12.608-19.2-16.224-32.672-16.224-60.368s3.616-41.168 16.224-60.368c22.848-34.832 95.344-107.36 142.496-142.592 75.12-56.128 143.888-85.984 216.256-93.888 110.464-12.080 230.24 39.44 342.656 147.392 35.616 34.176 71.44 74.416 82.448 92.592 11.040 18.224 14.016 30.544 13.904 57.712-0.064 21.152-0.576 25.28-4.416 35.984-5.92 16.48-16.24 31.776-38.48 57.040-45.888 52.128-97.808 98.48-146.448 130.784-84.112 55.856-165.296 79.504-247.76 72.144zM536.256 659.44c90.512-9.712 188.32-72.72 283.152-182.432 11.856-13.712 15.152-20.032 15.152-29.008s-3.296-15.296-15.152-29.008c-61.424-71.056-124-122.608-185.376-152.72-72.96-35.792-136.112-40.768-206.512-16.24-61.376 21.376-138.928 76.384-196.32 139.264-38.096 41.76-41.76 46.896-41.76 58.704 0 8.944 3.28 15.248 15.088 29.008 80.32 93.6 167.936 155.92 247.376 175.984 31.008 7.84 54.656 9.648 84.352 6.448zM484.624 616.064c-48.144-7.504-94.512-38.944-119.008-80.704-53.312-90.88-14.352-206.176 82.912-245.392 87.264-35.184 186.224 7.072 221.504 94.56 7.819 18.771 12.36 40.577 12.36 63.443 0 22.822-4.523 44.587-12.722 64.448l0.411-1.123c-22.736 56.288-72.704 95.888-132.272 104.88-19.68 2.96-33.648 2.928-53.184-0.112zM534.32 530.208c31.536-8.24 56.592-36.288 61.6-68.976 4.272-27.872-4-53.024-24.064-73.152-17.088-17.168-36.528-25.408-59.856-25.408-21.968 0-41.056 7.568-57.456 22.816-56.752 52.736-19.824 147.648 57.456 147.648 8.016-0.202 15.685-1.258 23.051-3.081l-0.731 0.153z" />
<glyph unicode="&#xe918;" glyph-name="file-text" d="M313.952 872.096c-69.616-11.024-125.472-65.024-139.76-135.12-3.472-17.056-3.52-21.168-3.52-288.976s0.048-271.92 3.52-288.976c9.955-48.508 39.197-88.789 79.18-113.219l0.756-0.429c14.048-8.464 36.432-16.896 54.896-20.656 16-3.264 23.776-3.392 202.976-3.392s186.976 0.128 202.976 3.392c58.032 11.824 103.92 49.712 125.728 103.808 3.216 7.984 7.376 22.016 9.232 31.152 3.28 16.080 3.392 23.776 3.36 227.152-0.032 228.368 0.288 220.32-9.488 244.88-3.568 8.48-7.404 15.689-11.799 22.504l0.343-0.568c-7.904 11.936-177.504 182.976-193.2 194.864-12.272 9.296-24.864 15.84-40.96 21.248l-11.952 4.016-128.848 0.32c-101.216 0.24-131.984-0.192-143.44-2zM512.48 753.072c0.928-38.304 2.704-50.4 10.976-74.672 24.336-71.392 83.744-123.936 159.216-140.848 8.784-1.968 24.16-3.136 49.056-3.728l36.272-0.864-0.032-174.32c-0.032-189.92 0.048-188.112-9.68-206.368-6.288-11.808-24.816-30.368-35.92-36-19.616-9.936-12.416-9.6-210.368-9.6-197.264 0-190.832-0.288-209.808 9.328-11.376 5.76-27.024 20.672-34.208 32.592-12.544 20.848-11.776 1.648-11.888 298.224-0.112 295.216-0.704 279.408 11.2 299.264 12.016 20.064 30.864 34.688 51.712 40.128 9.904 2.576 21.904 2.944 101.92 3.024l90.688 0.096 0.864-36.256zM674.144 694.448l75.936-76.112-24.752 0.848c-18.944 0.64-27.536 1.728-36.688 4.592-41.104 12.928-73.904 45.84-85.872 86.176-3.040 10.288-4.288 19.504-4.976 37.136-0.512 12.912-0.64 23.472-0.256 23.472 0.368 0 34.832-34.256 76.608-76.112z" />
<glyph unicode="&#xe919;" glyph-name="filter" d="M231.248 830.944l-12.8-2.512c-13.008-2.56-34.784-13.408-46.512-23.216-42-35.072-55.008-90.56-33.904-144.736 2.928-7.504 8.272-18.256 11.888-23.888 3.6-5.632 34.944-43.36 69.632-83.824 83.024-96.832 86.784-101.68 101.76-131.216 15.84-31.216 24.432-56.928 30.576-91.312 0.912-5.168 2.256-43.184 2.992-84.48 1.216-70.128 1.552-75.92 5.040-87.712 9.376-31.632 28.448-57.008 56.416-75.088 24-15.504 41.408-18.96 95.664-18.96 54.304 0 72.896 3.824 97.28 19.968 26.181 17.277 45.606 42.959 54.561 73.143l0.239 0.937c3.488 11.792 3.824 17.584 5.040 87.712 0.736 41.296 2.080 79.312 2.992 84.48 6.304 35.28 17.232 67.152 33.104 96.432 14.704 27.104 18.352 31.744 99.184 126.096 34.672 40.464 66 78.192 69.616 83.824 13.424 20.848 21.808 49.76 21.92 75.584 0.224 44.976-25.68 87.248-65.648 107.136-25.6 12.752 1.344 11.712-313.168 12.032-155.344 0.16-283.984-0.016-285.872-0.4zM791.104 743.456c8.512-3.856 15.392-11.808 18.128-20.928 2.64-8.784-0.032-26-5.712-36.672-2.16-4.096-34.048-42.592-70.832-85.536-74.32-86.752-74.896-87.472-90.4-111.92-26.544-41.856-44.832-90.496-54.64-145.264-2.112-11.824-3.024-32.496-3.856-87.984-0.992-64.864-1.424-73.312-4.208-79.808-3.888-9.056-17.264-21.296-26.224-23.984-9.152-2.736-73.568-2.736-82.72 0-8.96 2.688-22.336 14.928-26.224 23.984-2.784 6.496-3.216 14.944-4.208 79.808-0.832 55.488-1.744 76.16-3.856 87.984-9.824 54.848-28.096 103.408-54.752 145.424-15.424 24.352-18.208 27.808-89.776 111.328-34.976 40.832-65.488 76.72-67.792 79.744-5.12 6.704-10.704 23.968-10.704 33.104 0 13.328 7.552 25.12 19.632 30.704 6.544 3.024 18 3.152 279.040 3.152 260.448 0 272.512-0.128 279.104-3.136z" />
<glyph unicode="&#xe91a;" glyph-name="folder" d="M228.624 872.112c-69.728-11.136-125.488-65.040-139.76-135.136-3.488-17.056-3.536-21.168-3.536-288.976s0.048-271.92 3.536-288.976c9.955-48.504 39.191-88.783 79.165-113.219l0.755-0.429c14.064-8.464 36.432-16.896 54.896-20.656 16.192-3.296 23.984-3.392 288.32-3.392s272.128 0.096 288.32 3.392c58.016 11.824 103.904 49.712 125.712 103.808 3.216 7.984 7.376 22.016 9.248 31.152 3.264 16.048 3.392 23.808 3.392 215.408 0 214.544 0.080 212.448-9.088 239.312-8.576 25.12-21.552 45.92-40.8 65.408-20.768 21.008-43.776 34.656-74.704 44.304l-14.512 4.528-125.44 0.912c-116.048 0.832-125.952 1.136-132.256 3.984-10.8 4.864-14.992 9.888-42.288 50.672-32.368 48.4-46.752 63.648-71.312 75.696-28.112 13.808-26.912 13.648-110.832 14.128-56.16 0.32-77.792-0.144-88.816-1.92zM382.752 786.976c4.304-1.296 10.192-4.032 13.072-6.080s17.424-21.92 32.32-44.16c14.896-22.224 30.672-44.416 35.072-49.296 16.304-18.096 38.496-31.44 64.048-38.512 12.384-3.424 17.952-3.616 138.432-4.544l125.536-0.976 13.376-6.608c24.4-12.064 42.24-34.864 46.864-59.92 1.28-6.864 1.856-70.656 1.824-201.296-0.032-208.384 0.128-204.928-9.68-223.312-6.288-11.808-24.8-30.368-35.92-36-19.968-10.112-4.384-9.6-295.696-9.6-290.4 0-275.824-0.464-295.136 9.328-11.392 5.76-27.040 20.672-34.208 32.592-12.544 20.848-11.776 1.648-11.888 298.224-0.112 295.216-0.704 279.408 11.2 299.264 12.016 20.064 30.848 34.688 51.712 40.128 9.632 2.512 20.496 2.944 76.24 3.024 50.592 0.080 66.736-0.416 72.832-2.256z" />
<glyph unicode="&#xe91b;" glyph-name="heart" d="M332.032 830.24c-32.384-3.696-58.848-11.68-90.544-27.28-83.024-40.864-137.008-117.936-152.992-218.432-3.728-23.456-2.832-79.92 1.648-104.496 7.040-38.576 18.576-71.968 38.816-112.448 34.016-67.968 73.952-117.584 144.528-179.6 55.84-49.072 107.856-89.136 167.12-128.768 23.136-15.472 69.776-44.704 71.312-44.704 2.016 0 59.52 36.048 86.272 54.080 83.504 56.304 180.512 138.112 224.272 189.12 40.176 46.832 73.616 102.48 93.328 155.296 50.528 135.456 13.952 284.8-88.912 362.96-33.312 25.296-77.104 44.288-119.664 51.888-20.624 3.696-65.888 4.176-83.424 0.912-33.456-6.224-63.072-18.512-96-39.808l-15.792-10.224-15.856 10.272c-30.672 19.872-61.84 33.136-91.008 38.704-16.88 3.232-55.296 4.56-73.104 2.528zM383.152 744.896c30.544-4.352 57.040-18.432 107.888-57.328l20.864-15.952 15.84 12.128c54.656 41.872 79.664 55.504 111.296 60.72 43.2 7.12 96.496-6.88 134.16-35.232 13.936-10.48 34.544-31.952 43.12-44.928 15.392-23.28 27.664-54.272 32.928-83.184 4.096-22.432 4.112-68.608 0.032-89.6-5.712-29.376-11.568-46.64-26.656-78.64-33.008-69.952-73.136-116.832-166.416-194.32-42.592-35.408-137.216-103.36-143.904-103.36-2.368 0-27.904 16.816-59.184 38.96-78.208 55.36-163.056 129.328-196.128 170.96-35.008 44.080-66.368 103.184-77.424 145.92-6.336 24.576-7.984 38.608-7.888 67.408 0.128 37.488 5.040 62.672 18.128 93.024 33.216 77.024 114.432 124.672 193.344 113.424z" />
<glyph unicode="&#xe91c;" glyph-name="image" d="M273.072 872.784c-69.936-7.904-133.936-53.168-165.312-116.944-7.738-15.397-14.103-33.288-18.186-52.031l-0.278-1.521c-2.928-13.632-3.104-28.864-3.104-254.288s0.176-240.656 3.104-254.288c18.48-86.352 82.064-149.936 168.416-168.416 13.632-2.928 28.864-3.104 254.288-3.104s240.656 0.176 254.288 3.104c65.216 13.968 118.96 54.496 148.176 111.76 8.714 16.336 15.701 35.273 19.981 55.214l0.259 1.442c2.928 13.632 3.104 28.864 3.104 254.288s-0.176 240.656-3.104 254.288c-12.048 56.272-44.56 105.12-89.904 135.104-32.16 21.264-59.888 31.52-95.936 35.456-20.032 2.192-456.304 2.128-475.792-0.064zM762.048 784.16c41.12-13.242 72.87-44.992 85.851-85.179l0.261-0.933 4.304-13.68 0.496-178.896c0.384-145.088 0.064-178.656-1.712-177.568-1.2 0.736-29.44 24.032-62.768 51.776-33.328 27.728-64.656 53.024-69.632 56.192-48.992 31.248-116.704 22.768-157.552-19.712-5.28-5.488-24.944-29.168-43.728-52.64-18.768-23.472-36.352-44.736-39.056-47.264-6.944-6.512-16.128-9.904-26.784-9.904-7.904 0-12.192 1.52-30.592 10.832-27.216 13.792-42.704 17.408-68.192 15.984-9.68-0.544-22.192-2.192-27.824-3.664-16.144-4.224-37.152-15.632-49.328-26.8-6.048-5.536-30.016-33.872-53.28-62.976-27.184-34-42.72-52.128-43.504-50.736-0.656 1.184-2.624 7.152-4.352 13.248-2.976 10.528-3.136 22.992-3.136 245.76v234.672l3.936 13.712c13.376 46.752 53.856 82.976 101.824 91.136 4.72 0.8 112.656 1.344 239.84 1.2l231.248-0.24 13.68-4.32zM362.608 702.272c-48.432-8.768-86.992-43.040-101.744-90.432-5.76-18.512-5.76-53.168 0-71.68 13.116-41.865 45.431-74.18 86.363-87.043l0.933-0.253c18.512-5.76 53.168-5.76 71.68 0 41.865 13.116 74.18 45.431 87.043 86.363l0.253 0.933c5.76 18.512 5.76 53.168 0 71.68-13.024 41.856-45.888 74.816-86.416 86.672-15.392 4.496-43.888 6.352-58.112 3.76zM397.248 616.064c16.112-4.784 29.424-22.912 29.424-40.096 0-14.080-9.232-29.648-22.032-37.168-6.64-3.904-9.808-4.608-20.64-4.608s-14 0.704-20.64 4.608c-24.8 14.576-29.168 46.848-9.072 66.944 11.904 11.904 26.112 15.328 42.96 10.32zM670.544 365.312c4.080-2.096 102.432-83.008 180.96-148.848 1.92-1.616-6.16-28.16-12.064-39.68-15.856-30.88-44.4-54.688-78.272-65.264l-12.8-4h-236.368c-224.704 0-236.88 0.16-246.608 3.136-14 4.304-26.464 9.76-26.464 11.616 0 2.48 87.568 111.024 94.384 116.992 7.056 6.192 15.536 9.040 26.96 9.040 6.288 0.016 12.176-2.176 29.36-10.88 25.184-12.752 39.152-16.416 62.576-16.416 30.496 0 60.928 11.216 81.856 30.16 6.032 5.456 27.632 30.672 48 56.016 20.368 25.36 38.688 47.808 40.704 49.92 3.856 4.016 11.712 8.528 18.928 10.896 6.336 2.080 22.56 0.576 28.848-2.688z" />
<glyph unicode="&#xe91d;" glyph-name="info-circle" d="M494.080 873.664c-63.472-6.288-108.544-18.576-158.72-43.232-46.64-22.912-83.168-49.728-120.32-88.304-60.528-62.864-98.912-140.496-113.792-230.128-4.464-26.896-4.464-101.104 0-128 10.72-64.592 32.976-121.392 68.24-174.080 14.704-21.968 26.688-36.656 47.2-57.808 50.064-51.648 104.96-86.272 172.368-108.704 41.776-13.92 74.928-19.888 119.536-21.52 118.544-4.336 232.032 40.384 316.128 124.576 66.768 66.832 108 150.112 121.824 246.064 4.032 27.968 4.032 82.976 0 110.944-10.88 75.44-38.080 142.208-81.376 199.68-69.264 91.952-169.072 150.928-283.2 167.312-17.392 2.512-74.096 4.56-87.888 3.2zM576 785.104c106.976-16.576 200.576-84.048 249.808-180.096 19.216-37.504 29.344-68.672 35.2-108.368 3.68-24.928 3.68-72.352 0-97.28-18.064-122.56-99.12-224.496-214.256-269.472-36.624-14.304-70.32-21.2-110.864-22.688-151.696-5.568-287.952 88.928-336.16 233.136-12.976 38.848-18.032 74.8-16.64 118.704 1.472 47.072 10.448 87.12 28.624 127.744 49.712 111.088 154.816 187.44 276.4 200.752 19.52 2.144 66.864 0.832 87.888-2.432zM509.44 659.744c-13.056-3.184-23.232-12.288-26.384-23.632-2.272-8.224-2.256-26.752 0.048-35.056 4.704-16.944 22.112-26.32 45.536-24.544 23.392 1.76 35.632 14 37.52 37.504 1.824 22.736-7.68 39.408-25.44 44.688-9.216 2.736-22.48 3.168-31.28 1.040zM509.44 489.072c-13.056-3.184-23.232-12.288-26.384-23.632-2.432-8.8-2.4-196.912 0.048-205.728 4.16-14.976 20.192-25.040 39.872-25.040 20.608 0 35.888 9.536 40.448 25.248 3.408 11.712 3.408 193.776 0 205.488-5.584 19.232-29.376 29.648-53.984 23.664z" />
<glyph unicode="&#xe91e;" glyph-name="loader-1" d="M495.52 872.224c-10.096-3.168-17.136-8.688-21.536-16.896-3.744-7.008-3.808-8.256-4.288-83.488-0.32-48.944 0.144-78.736 1.28-82.944 4.512-16.784 16.816-25.92 36.592-27.168 20.688-1.312 34.24 4.64 41.984 18.448l4.256 7.616v80.208c0 79.68-0.016 80.256-3.792 87.328-2.096 3.904-6.176 8.8-9.088 10.864-11.28 8.032-30.752 10.608-45.408 6.032zM224.4 760.16c-22.832-12.016-34.224-36.624-25.6-55.312 4.304-9.28 106.544-111.808 116.432-116.736 14.896-7.424 31.024-3.504 45.6 11.056 14.56 14.576 18.48 30.72 11.040 45.6-4.88 9.776-105.6 110.496-115.376 115.376-9.568 4.784-23.024 4.784-32.096 0.016zM767.152 760.064c-9.536-4.912-110.384-106.016-115.024-115.296-7.44-14.88-3.52-31.024 11.040-45.6 14.576-14.56 30.704-18.48 45.6-11.056 9.776 4.88 112.144 107.456 116.32 116.576 6.72 14.656 2.352 31.552-11.68 45.12-14.624 14.128-31.488 17.872-46.256 10.256zM111.52 488.224c-10.096-3.168-17.136-8.688-21.52-16.896-3.168-5.92-3.808-9.84-3.808-23.328 0-14.128 0.544-17.184 4.256-23.824 4.746-8.326 12.492-14.481 21.731-17.044l0.253-0.060c3.696-1.024 35.632-1.712 79.568-1.712s75.872 0.688 79.568 1.712c9.492 2.623 17.238 8.778 21.891 16.927l0.093 0.177c3.728 6.656 4.256 9.648 4.208 23.824-0.032 13.36-0.704 17.472-3.792 23.328-4.448 8.416-11.408 13.744-22.144 16.976-10.976 3.312-149.712 3.232-160.304-0.080zM751.52 488.224c-10.096-3.168-17.136-8.688-21.52-16.896-3.168-5.92-3.808-9.84-3.808-23.328 0-14.128 0.544-17.184 4.256-23.824 4.746-8.326 12.492-14.481 21.731-17.044l0.253-0.060c3.696-1.024 35.632-1.712 79.568-1.712s75.872 0.688 79.568 1.712c9.492 2.623 17.238 8.778 21.891 16.927l0.093 0.177c3.728 6.656 4.256 9.648 4.208 23.824-0.032 13.36-0.704 17.472-3.792 23.328-4.448 8.416-11.408 13.744-22.144 16.976-10.976 3.312-149.712 3.232-160.304-0.080zM314.88 307.808c-9.536-4.912-112-107.824-115.968-116.496-6.688-14.576-2.72-30.304 11.264-44.72 13.616-14.032 30.48-18.4 45.136-11.68 9.12 4.176 111.696 106.544 116.576 116.32 7.328 14.72 3.488 31.040-10.64 45.168-14.8 14.8-31.68 18.96-46.368 11.408zM677.888 307.824c-9.44-4.672-22.176-17.424-26.16-26.192-4.208-9.264-4.064-21.472 0.384-30.4 4.88-9.776 107.456-112.144 116.576-116.32 14.656-6.72 31.52-2.352 45.136 11.68 13.984 14.416 17.952 30.144 11.264 44.72-4.176 9.12-106.544 111.696-116.32 116.576-4.496 2.203-9.784 3.491-15.374 3.491-5.641 0-10.976-1.312-15.715-3.648l0.209 0.093zM495.52 232.224c-10.096-3.168-17.136-8.688-21.536-16.896-3.744-7.008-3.808-8.256-4.288-83.488-0.32-48.944 0.144-78.736 1.28-82.944 4.512-16.784 16.816-25.92 36.592-27.168 20.688-1.312 34.24 4.64 41.984 18.448l4.256 7.616v80.208c0 79.68-0.016 80.256-3.792 87.328-2.096 3.904-6.176 8.8-9.088 10.864-11.28 8.032-30.752 10.608-45.408 6.032z" />
<glyph unicode="&#xe91f;" glyph-name="lock" d="M484.624 872.064c-69.456-10.832-125.488-64.992-139.76-135.088-3.232-15.856-3.536-23.264-3.536-89.136v-71.84l-4.688-0.016c-9.664-0.016-37.904-5.088-48.416-8.688-59.184-20.256-101.664-68.32-114.032-128.992-3.376-16.528-3.52-22.736-3.52-139.632 0-116.912 0.144-123.12 3.52-139.648 9.955-48.508 39.197-88.789 79.18-113.219l0.756-0.429c14.048-8.464 36.432-16.896 54.896-20.656 16-3.264 23.776-3.392 202.976-3.392s186.976 0.128 202.976 3.392c58.032 11.824 103.92 49.712 125.728 103.808 3.216 7.984 7.376 22.016 9.232 31.152 3.2 15.696 3.392 23.648 3.392 138.992s-0.192 123.296-3.392 138.976c-12.48 61.296-54.768 109.328-114.16 129.648-10.512 3.6-38.752 8.672-48.416 8.688l-4.688 0.016v71.84c0 80.672-1.104 91.024-12.592 119.456-22.736 56.288-72.704 95.888-132.272 104.88-19.68 2.96-33.648 2.928-53.184-0.112zM534.32 786.208c21.264-5.552 42.384-22.416 53.28-42.56 8.768-16.224 9.664-25.488 9.696-99.808l0.032-67.84h-170.656v68.352c0 76.832 0.816 84.256 11.296 101.728 20.496 34.224 58.448 50.016 96.352 40.128zM704.992 487.536c29.392-7.664 54.272-33.552 60.496-62.944 3.6-17.024 3.6-234.816 0-251.84-3.344-15.776-9.872-27.296-23.072-40.672-12.016-12.176-23.328-18.848-38.752-22.864-14.656-3.824-368.672-3.824-383.328 0-29.216 7.6-53.728 31.824-61.2 60.464-2.64 10.064-2.944 23.312-3.040 127.792-0.112 129.92-0.016 131.232 11.2 149.936 12.016 20.064 30.864 34.688 51.712 40.128 10.272 2.688 26.672 2.928 192.992 2.928s182.72-0.24 192.992-2.928z" />
<glyph unicode="&#xe920;" glyph-name="logout" d="M784 468.048c-2.848 5.856-7.216 12-9.712 13.648s-43.36 41.504-90.784 88.576c-58.864 58.4-88.656 86.768-93.824 89.36-15.008 7.536-30.576 3.744-45.376-11.056s-18.592-30.368-11.056-45.376c2.512-4.976 21.696-25.552 56.032-60.048l52.224-52.48-57.888-0.016c-134.752 0-211.2-0.624-215.184-1.728-16.416-4.56-25.456-16.912-26.704-36.496-1.312-20.688 4.64-34.24 18.448-41.984l7.616-4.256 212.384-0.464 61.264-0.464-52.192-52.448c-34.304-34.48-53.488-55.040-56-60.016-7.536-15.008-3.744-30.576 11.056-45.376s30.368-18.592 45.376-11.056c5.168 2.592 34.96 30.96 93.824 89.36 47.424 47.072 88.288 86.928 90.8 88.592 2.512 1.648 6.896 7.904 9.76 13.888 7.008 14.688 6.992 25.296-0.064 39.84zM509.552 763.152c-3.152 10.096-8.688 17.136-16.896 21.52l-7.104 3.808-122.4 0.464c-118.432 0.464-122.976 0.368-139.904-3.088-57.632-11.744-103.519-49.728-125.279-103.712-3.216-8-7.376-22.016-9.248-31.168-3.264-16-3.392-23.776-3.392-202.976s0.128-186.976 3.392-202.976c14.176-69.52 65.552-120.816 135.232-135.024 16.16-3.296 22.208-3.424 139.248-2.96l122.352 0.48 7.248 3.872c13.2 7.056 20.48 23.888 18.72 43.328-1.68 18.56-11.184 31.264-26.624 35.552-3.856 1.056-49.568 1.728-121.376 1.744-125.552 0.048-129.664 0.32-147.248 9.696-11.808 6.288-30.368 24.816-36 35.92-9.936 19.616-9.6 12.416-9.6 210.368 0 197.008-0.272 190.864 9.216 209.6 8.944 17.632 30.464 36.112 49.536 42.528 7.744 2.608 21.76 3.024 132.384 3.824l123.744 0.896 7.104 3.808c3.904 2.096 8.8 6.176 10.864 9.088 8.032 11.264 10.624 30.736 6.032 45.408z" />
<glyph unicode="&#xe921;" glyph-name="mail" d="M228.624 786.736c-69.456-10.832-125.488-64.992-139.76-135.104-3.44-16.848-3.536-22.064-3.536-203.632s0.096-186.784 3.536-203.632c9.952-48.505 39.188-88.786 79.165-113.219l0.755-0.429c14.064-8.48 36.432-16.896 54.896-20.656 16.192-3.312 23.984-3.392 288.32-3.392s272.128 0.080 288.32 3.392c58.016 11.824 103.904 49.712 125.712 103.792 3.216 8 7.376 22.016 9.248 31.168 3.264 16 3.392 23.776 3.392 202.976s-0.128 186.976-3.392 202.976c-12.496 61.296-54.784 109.328-114.176 129.664-25.52 8.736-23.664 8.688-310.816 8.512-213.36-0.112-270.016-0.608-281.664-2.416zM790.32 700.864c29.408-7.664 54.272-33.552 60.496-62.944 3.648-17.2 3.648-362.64 0-379.84-3.328-15.76-9.872-27.296-23.072-40.672-12-12.176-23.312-18.848-38.736-22.864-14.736-3.84-539.28-3.84-554.016 0-29.216 7.616-53.728 31.824-61.2 60.464-2.672 10.256-2.944 26.8-3.024 191.808-0.112 200.672-0.432 194.528 11.2 213.936 12.016 20.064 30.848 34.672 51.712 40.112 10.384 2.72 31.344 2.944 278.32 2.944s267.936-0.224 278.32-2.944zM282 616.768c-15.152-7.504-27.712-26.832-27.712-42.672 0-17.44-2-15.584 133.888-124.32l123.824-99.088 123.824 99.088c135.888 108.736 133.888 106.88 133.888 124.32 0 11.136-4.096 20.512-13.76 31.472-13.376 15.216-30.736 18.928-46.832 10.032-4.688-2.608-50.96-38.688-102.832-80.208l-94.288-75.472-94.288 75.472c-51.872 41.52-98.144 77.6-102.832 80.208-10.736 5.92-22.416 6.336-32.88 1.168z" />
<glyph unicode="&#xe922;" glyph-name="marker-down" d="M113.76 743.888c-15.264-4.688-28.432-23.008-28.432-39.568 0-3.248 0.928-8.992 2.064-12.768 1.248-4.144 79.216-118.352 197.664-289.472 170.112-245.776 196.64-283.328 203.632-288.064 8.976-6.080 19.472-8.32 30.944-6.592 18.032 2.704 6.88-12.288 219.664 295.152 131.456 189.936 196.576 285.424 197.856 290.144 4.192 15.552-2.144 35.104-14.432 44.464-13.296 10.144 15.504 9.488-410.512 9.36-340.32-0.096-391.232-0.432-398.448-2.656z" />
<glyph unicode="&#xe923;" glyph-name="marker-left" d="M807.888 846.24c-4.688 15.264-23.008 28.432-39.568 28.432-3.248 0-8.992-0.928-12.768-2.064-4.144-1.248-118.352-79.216-289.472-197.664-245.776-170.112-283.328-196.64-288.064-203.632-6.080-8.976-8.32-19.472-6.592-30.944 2.704-18.032-12.288-6.88 295.152-219.664 189.936-131.456 285.424-196.576 290.144-197.856 15.552-4.192 35.104 2.144 44.464 14.432 10.144 13.296 9.488-15.504 9.36 410.512-0.096 340.32-0.432 391.232-2.656 398.448z" />
<glyph unicode="&#xe924;" glyph-name="marker-right" d="M216.112 49.76c4.688-15.264 23.008-28.432 39.568-28.432 3.248 0 8.992 0.928 12.768 2.064 4.144 1.248 118.352 79.216 289.472 197.664 245.776 170.112 283.328 196.64 288.064 203.632 6.080 8.976 8.32 19.472 6.592 30.944-2.704 18.032 12.288 6.88-295.152 219.664-189.936 131.456-285.424 196.576-290.144 197.856-15.552 4.192-35.104-2.144-44.464-14.432-10.144-13.296-9.488 15.504-9.36-410.512 0.096-340.32 0.432-391.232 2.656-398.448z" />
<glyph unicode="&#xe925;" glyph-name="marker-up" d="M910.24 152.112c15.264 4.688 28.432 23.008 28.432 39.568 0 3.248-0.928 8.992-2.064 12.768-1.248 4.144-79.216 118.352-197.664 289.472-170.112 245.776-196.64 283.328-203.632 288.064-8.976 6.080-19.472 8.32-30.944 6.592-18.032-2.704-6.88 12.288-219.664-295.152-131.456-189.936-196.576-285.424-197.856-290.144-4.192-15.552 2.144-35.104 14.432-44.464 13.296-10.144-15.504-9.488 410.512-9.36 340.32 0.096 391.232 0.432 398.448 2.656z" />
<glyph unicode="&#xe926;" glyph-name="moon" d="M614.272 858.176c6.446 6.445 14.595 10.92 23.491 12.904 8.898 1.984 18.174 1.392 26.749-1.704 70.858-25.695 134.088-68.852 183.837-125.476 49.747-56.624 84.405-124.885 100.762-198.462s13.888-150.093-7.182-222.461-60.059-138.251-113.355-191.549c-53.298-53.298-119.181-92.285-191.549-113.355-72.37-21.070-148.885-23.541-222.461-7.184-73.578 16.358-141.838 51.014-198.462 100.763-56.625 49.747-99.782 112.978-125.477 183.837-3.101 8.579-3.692 17.866-1.705 26.768 1.987 8.904 6.47 17.058 12.924 23.506 6.454 6.446 14.612 10.922 23.518 12.899s18.191 1.376 26.767-1.733c62.93-22.83 131.064-27.243 196.413-12.72 65.347 14.523 125.2 47.379 172.536 94.715s80.192 107.187 94.715 172.536c14.523 65.349 10.11 133.483-12.72 196.412-3.11 8.582-3.707 17.873-1.723 26.783 1.982 8.91 6.466 17.069 12.923 23.521v0zM717.696 733.696c6.794-66.205-1.248-133.091-23.541-195.797s-58.277-119.661-105.336-166.72-104.011-83.042-166.718-105.334c-62.707-22.293-129.594-30.334-195.797-23.541 29.822-41.358 68.274-75.744 112.694-100.778 44.419-25.034 93.749-40.118 144.573-44.21s101.931 2.907 149.784 20.512c47.853 17.606 91.31 45.397 127.365 81.451s63.845 79.512 81.45 127.365c17.606 47.853 24.605 98.96 20.514 149.784-4.093 50.824-19.176 100.152-44.211 144.573s-59.418 82.872-100.776 112.694v0z" />
<glyph unicode="&#xe927;" glyph-name="more-horizontal" d="M191.008 530.208c-28.64-7.472-52.848-31.984-60.464-61.2-5.040-19.376-2.416-42 7.072-60.704 5.808-11.456 24.56-30.224 36.016-36.032 11.542-6.020 25.206-9.551 39.696-9.551s28.154 3.531 40.18 9.781l-0.484-0.229c11.36 5.76 30.208 24.528 35.888 35.76 16.624 32.784 11.584 70.896-12.832 97.168-16.944 18.24-38.72 27.936-62.752 27.936-8.016-0.202-15.685-1.258-23.051-3.081l0.731 0.153zM489.68 530.208c-28.64-7.472-52.864-31.984-60.464-61.2-5.056-19.376-2.416-42 7.056-60.704 5.808-11.456 24.576-30.224 36.032-36.032 11.542-6.020 25.206-9.551 39.696-9.551s28.154 3.531 40.18 9.781l-0.484-0.229c11.36 5.76 30.192 24.528 35.888 35.76 6.028 11.567 9.563 25.261 9.563 39.78 0 7.191-0.867 14.18-2.503 20.867l0.124-0.6c-3.504 14.8-9.392 25.68-20.256 37.376-16.704 17.984-38.608 27.68-62.512 27.68-8.016-0.202-15.685-1.258-23.051-3.081l0.731 0.153zM788.336 530.208c-28.64-7.472-52.848-31.984-60.464-61.2-5.040-19.376-2.416-42 7.072-60.704 5.808-11.456 24.56-30.224 36.032-36.032 11.542-6.020 25.206-9.551 39.696-9.551s28.154 3.531 40.18 9.781l-0.484-0.229c11.344 5.76 30.192 24.528 35.872 35.76 6.033 11.56 9.572 25.247 9.572 39.76 0 7.199-0.871 14.194-2.513 20.887l0.124-0.599c-3.488 14.8-9.376 25.68-20.24 37.376-16.72 17.984-38.624 27.68-62.512 27.68-8.021-0.2-15.696-1.257-23.067-3.081l0.731 0.153z" />
<glyph unicode="&#xe928;" glyph-name="navigation" d="M797.008 838.304c-13.936-4.848-623.216-277.984-638.288-286.16-6.64-3.6-16.672-11.552-24.976-19.776-11.536-11.44-15.216-16.512-21.68-29.872-18.208-37.696-16.928-79.12 3.52-114.192 7.248-12.432 25.264-31.456 36.512-38.576 4.112-2.592 37.424-20.432 74.032-39.632 72.656-38.080 84.608-45.2 97.040-57.712 13.104-13.184 18.848-22.816 57.6-96.8 20.736-39.584 40.256-74.592 45.168-81.056 36.16-47.536 102.288-60.112 155.184-29.536 13.888 8.032 34.704 29.184 42.208 42.896 9.424 17.216 283.936 631.008 287.376 642.56 7.392 24.784 1.76 54.256-14.48 75.872-12.224 16.256-30.16 28.592-48.864 33.6-13.728 3.664-37.296 2.912-50.352-1.616zM827.328 752.208c-0.992-5.984-274.944-616.992-280.352-625.28-10.416-16-37.184-17.984-50.64-3.76-2.512 2.656-20.848 35.936-40.752 73.952-41.44 79.152-49.168 91.776-68.272 111.68-24.752 25.792-29.072 28.528-120.224 76.096-43.888 22.912-68.672 36.832-72.784 40.88-11.216 11.024-12.672 28.432-3.552 42.464 3.664 5.68 7.44 8.432 19.12 14 45.248 21.568 610.848 274.32 614.208 274.48 3.488 0.16 3.936-0.448 3.248-4.512z" />
<glyph unicode="&#xe929;" glyph-name="paperclip" d="M659.632 862.512c-28.16-3.472-60.176-17.376-83.648-36.304-17.312-13.968-400.432-397.728-410.832-411.52-72.096-95.664-63.68-225.056 20.080-308.816 60.176-60.176 146.672-83.2 227.6-60.608 28.512 7.968 56.96 21.856 79.536 38.848 5.632 4.24 102.24 99.568 214.672 211.824 215.264 214.96 212.848 212.384 212.848 227.504 0 13.408-14.256 33.088-29.696 40.96-9.376 4.784-21.84 4.688-31.76-0.288-5.52-2.752-64.96-60.992-212.464-208.16-128.176-127.888-208.304-206.608-214.176-210.384-14.208-9.12-22.192-12.8-38.704-17.824-13.456-4.096-17.888-4.608-41.52-4.704-22.432-0.096-28.432 0.448-39.52 3.648-26.24 7.568-43.504 17.44-63.472 36.256-21.296 20.080-36.912 46.96-43.136 74.288-4.192 18.384-4.192 49.824-0.016 68.256 3.84 16.912 15.104 41.072 25.456 54.624 4.32 5.632 96.784 99.040 205.488 207.568 219.968 219.616 204.416 205.616 233.072 210 27.888 4.272 53.056-4.016 73.088-24.048 26.128-26.128 32.64-64.080 16.704-97.424-4.896-10.24-20.352-26.16-201.952-207.968-194.752-194.976-196.72-196.88-204.16-197.616-9.12-0.896-14.608 1.728-19.84 9.488-4.224 6.272-4.976 13.584-2 19.472 1.024 2.048 88.896 90.896 195.248 197.424 138.304 138.56 194.432 195.872 197.136 201.28 7.536 15.136 3.696 30.592-11.312 45.616-13.92 13.904-29.6 17.632-45.040 10.704-6-2.688-50.816-46.592-204.224-200.064-132.192-132.256-198.528-199.792-202.64-206.304-28.592-45.424-18.304-106.256 23.712-140.128 34.528-27.824 85.248-31.104 122.48-7.936 9.648 6 392.064 386.416 408.208 406.064 68.032 82.848 42.208 208.112-53.2 258.064-31.984 16.752-65.488 22.736-102.016 18.208z" />
<glyph unicode="&#xe92a;" glyph-name="plus" d="M495.52 829.552c-10.096-3.152-17.136-8.688-21.536-16.896l-3.792-7.104-0.928-314.88h-153.296c-164.032 0-162.208 0.080-174.224-8.48-9.488-6.752-12.88-15.76-12.88-34.192-0.016-14.128 0.544-17.184 4.256-23.824 4.746-8.326 12.492-14.481 21.731-17.044l0.253-0.060c3.92-1.088 62.288-1.728 160.208-1.728l154.016-0.016 0.016-154.016c0-97.92 0.64-156.288 1.728-160.208 4.56-16.416 16.912-25.472 36.496-26.72 20.688-1.312 34.24 4.64 41.984 18.448l4.256 7.616 0.48 157.44 0.464 157.44 153.984 0.016c97.888 0 156.24 0.64 160.16 1.728 9.492 2.623 17.238 8.778 21.891 16.927l0.093 0.177c3.728 6.656 4.256 9.648 4.224 23.824-0.048 18.464-3.456 27.504-12.848 34.192-12.016 8.56-10.192 8.48-174.224 8.48h-153.28l-0.464 157.44-0.48 157.44-3.792 7.104c-2.096 3.904-6.176 8.8-9.088 10.864-11.28 8.032-30.752 10.624-45.408 6.032z" />
<glyph unicode="&#xe92b;" glyph-name="search" d="M441.168 873.632c-56.064-5.776-95.968-16.656-139.936-38.128-77.488-37.808-137.392-97.44-175.856-175.024-53.344-107.6-53.344-232.016 0-339.632 19.84-40.016 40.896-69.488 71.808-100.544 116.384-116.928 292.816-146.8 440.256-74.528 22.528 11.040 46.8 25.808 63.904 38.848l7.568 5.792 82.032-81.792c56.304-56.16 84.384-82.992 89.584-85.6 15.024-7.52 30.592-3.728 45.376 11.072 14.8 14.784 18.592 30.352 11.072 45.376-2.608 5.2-29.44 33.28-85.6 89.584l-81.792 82.032 5.792 7.568c13.040 17.104 27.808 41.376 38.848 63.904 24.604 49.066 39.008 106.911 39.008 168.12 0 61.197-14.398 119.031-39.992 170.299l0.999-2.211c-55.453 112.061-160.942 192.091-286.455 211.315l-2.137 0.269c-17.424 2.624-70.736 4.704-84.48 3.28zM516.368 785.168c127.856-19.344 229.92-123.184 248.384-252.688 2.816-19.744 2.816-63.888 0-83.632-18.656-130.848-119.376-232.272-251.904-253.664-17.6-2.848-69.44-2.848-87.040 0-132.56 21.392-233.152 122.688-251.904 253.664-2.832 19.744-2.816 65.808 0.032 84.48 16.752 110.032 90.608 200.624 193.856 237.792 26.88 9.68 46.688 13.84 81.92 17.216 11.616 1.104 50.608-0.752 66.656-3.168z" />
<glyph unicode="&#xe92c;" glyph-name="send" d="M806.4 848.896c-5.632-0.832-146.176-40.352-312.32-87.824-342.8-97.952-324.224-91.776-348.288-115.824-11.568-11.584-15.344-16.8-21.776-30.112-9.472-19.6-13.088-34.592-13.088-54.336 0.203-39.072 19.107-73.686 48.211-95.374l0.317-0.226c4.768-3.472 51.664-33.104 104.224-65.824 52.56-32.736 99.488-62.384 104.272-65.888 4.784-3.52 12.512-10.656 17.168-15.888 4.672-5.232 37.568-56.176 73.104-113.216 59.744-95.84 65.696-104.736 78.528-117.552 24.352-24.272 54.496-36.016 87.888-34.24 8.912 0.48 20.816 2.128 26.448 3.664 32.016 8.736 61.712 33.472 75.936 63.216 5.664 11.84 178.592 615.504 180.672 630.656 2.8 20.48-2.72 42.432-15.472 61.52-17.888 26.8-53.024 42.048-85.824 37.248zM821.536 758.432c-0.224-5.536-165.104-585.072-170.768-600.176-7.088-18.928-32.512-26.768-49.632-15.312-6.736 4.512-5.968 3.328-90.544 139.2l-41.776 67.088 76.864 77.12c52.080 52.256 78.128 79.584 80.784 84.8 4.832 9.456 5.2 22.288 0.88 30.72-4.24 8.256-17.552 21.728-25.744 26.064-8.704 4.608-23.216 4.848-31.568 0.544-3.296-1.696-41.024-38.032-83.872-80.768-55.6-55.456-78.56-77.296-80.208-76.32-11.024 6.56-190.048 118.432-195.616 122.256-10.416 7.152-14.704 16.4-13.648 29.472 1.2 15.040 7.856 24.464 20.912 29.648 9.008 3.584 600.672 172.448 602.448 171.952 0.944-0.272 1.616-3.088 1.488-6.288z" />
<glyph unicode="&#xe92d;" glyph-name="setting" d="M457.392 872.016c-36.896-7.92-70.112-39.008-80.88-75.68-1.488-5.056-3.216-15.424-3.824-23.040-0.608-7.6-2.128-15.872-3.392-18.352-3.488-6.944-15.456-16.32-30.288-23.744-17.072-8.544-24.832-8.816-40.336-1.44-32.88 15.632-66.352 15.488-98.992-0.416-22.768-11.104-35.552-25.248-58.384-64.64-10.048-17.344-20.256-35.888-22.672-41.216-15.76-34.64-10.416-76.56 13.888-108.896 7.264-9.648 14.128-15.744 30.848-27.392 11.856-8.256 14.8-16.032 14.864-39.2 0.064-25.44-2.48-30.576-22.064-44.496-28.192-20.032-43.6-47.824-46.304-83.504-1.136-15.088 2.176-32.992 8.768-47.488 2.416-5.328 12.624-23.888 22.672-41.264 15.536-26.832 20.32-33.616 31.936-45.216 15.392-15.408 28.352-22.768 49.744-28.24 25.2-6.432 47.984-3.984 74.624 8.048 11.776 5.312 14.704 5.984 22.656 5.168 15.328-1.584 43.376-18.72 49.040-29.952 1.264-2.48 2.784-10.752 3.392-18.352 2.72-33.856 18.784-62.176 46.512-81.952 23.104-16.496 36.592-19.296 92.8-19.296s69.696 2.8 92.8 19.296c27.728 19.776 43.792 48.096 46.512 81.952 0.608 7.6 2.128 15.872 3.392 18.352 5.664 11.232 33.712 28.368 49.040 29.952 7.952 0.816 10.88 0.144 22.656-5.168 26.64-12.032 49.424-14.48 74.624-8.048 21.392 5.472 34.352 12.832 49.744 28.24 11.616 11.6 16.4 18.384 31.936 45.216 10.048 17.376 20.256 35.936 22.672 41.264 20.592 45.248 4.448 101.984-37.232 130.8-7.12 4.912-14.592 11.264-16.624 14.112-8.304 11.68-8.304 49.472 0 61.152 2.032 2.848 9.504 9.2 16.624 14.112 41.68 28.816 57.824 85.552 37.232 130.8-2.416 5.328-12.624 23.872-22.672 41.216-22.832 39.392-35.616 53.536-58.384 64.64-32.64 15.904-66.112 16.048-98.992 0.416-15.504-7.376-23.264-7.104-40.336 1.44-14.832 7.424-26.8 16.8-30.288 23.744-1.264 2.48-2.784 10.752-3.392 18.352-2.24 27.984-12 49.184-31.808 69.104-14.96 15.040-34.048 25.584-53.744 29.712-16.272 3.392-92.4 3.328-108.368-0.096zM554.144 786c8.432-5.136 10.784-10.272 12.544-27.232 4.912-47.472 31.040-80.304 84.336-105.984 20.384-9.808 36.32-13.632 56.8-13.632 17.28 0 29.664 2.816 49.152 11.168 27.232 11.68 29.824 9.888 58.688-40.496 17.856-31.168 17.216-37.776-5.136-53.44-22.72-15.92-37.984-37.968-46.336-66.928-3.28-11.376-3.824-17.36-3.824-41.456s0.544-30.080 3.824-41.456c8.352-28.96 23.616-51.008 46.336-66.928 14.208-9.952 18-15.52 17.696-26-0.192-6.704-26.656-54.496-36.336-65.6-8.72-10.016-16.752-10.576-35.184-2.448-25.888 11.408-48.944 14.032-75.392 8.576-24.784-5.104-60.192-24.688-79.824-44.144-20.768-20.576-31.776-43.6-34.8-72.768-1.76-16.96-4.112-22.096-12.544-27.232-4.96-3.024-8.784-3.328-42.144-3.328s-37.184 0.304-42.144 3.328c-8.432 5.136-10.784 10.272-12.544 27.232-4.832 46.752-30.96 79.696-84.4 106.432-15.456 7.728-31.392 11.744-50.352 12.672-21.168 1.040-34.24-1.504-55.232-10.768-17.68-7.776-26.352-7.456-34.352 1.296-6.576 7.232-34.688 55.664-36.864 63.536-2.896 10.464 1.76 18.288 17.328 29.2 22.752 15.936 38.016 37.984 46.368 66.944 3.28 11.376 3.824 17.36 3.824 41.456s-0.544 30.080-3.824 41.456c-8.352 28.96-23.616 51.008-46.336 66.928-22.352 15.664-22.992 22.272-5.136 53.44 8.686 15.458 14.675 25.459 20.815 35.357l-2.735-4.733c9.744 15.424 21.056 19.312 35.168 12.112 24.432-12.464 54.784-16.576 80.848-10.944 25.92 5.6 65.488 28 83.152 47.072 18.736 20.24 28.896 42.656 31.728 70.080 1.76 16.96 4.112 22.096 12.544 27.232 4.96 3.024 8.784 3.328 42.144 3.328s37.184-0.304 42.144-3.328zM484.624 616.064c-48.144-7.504-94.512-38.944-119.008-80.704-53.312-90.88-14.352-206.176 82.912-245.392 87.264-35.184 186.224 7.072 221.504 94.56 7.819 18.771 12.36 40.577 12.36 63.443 0 22.822-4.523 44.587-12.722 64.448l0.411-1.123c-22.736 56.288-72.704 95.888-132.272 104.88-19.68 2.96-33.648 2.928-53.184-0.112zM534.32 530.208c31.536-8.24 56.592-36.288 61.6-68.976 4.272-27.872-4-53.024-24.064-73.152-17.088-17.168-36.528-25.408-59.856-25.408-21.968 0-41.056 7.568-57.456 22.816-56.752 52.736-19.824 147.648 57.456 147.648 8.016-0.202 15.685-1.258 23.051-3.081l-0.731 0.153z" />
<glyph unicode="&#xe92e;" glyph-name="share" d="M491.952 871.12c-5.856-2.848-12-7.216-13.648-9.712s-41.504-43.36-88.576-90.784c-58.4-58.864-86.768-88.656-89.36-93.824-7.536-15.008-3.744-30.576 11.056-45.376s30.368-18.592 45.376-11.056c4.976 2.512 25.552 21.696 60.048 56.032l52.48 52.224 0.016-209.008c0-134.752 0.624-211.2 1.728-215.184 4.56-16.416 16.912-25.456 36.496-26.704 20.688-1.312 34.24 4.64 41.984 18.448l4.256 7.616 0.928 424.768 52.448-52.192c34.48-34.304 55.040-53.488 60.016-56 15.008-7.536 30.576-3.744 45.376 11.056s18.592 30.368 11.056 45.376c-2.592 5.168-30.96 34.96-89.36 93.824-47.072 47.424-86.928 88.288-88.592 90.8-1.648 2.512-7.904 6.896-13.888 9.76-14.688 7.008-25.296 6.992-39.84-0.064zM196.848 445.552c-10.096-3.152-17.136-8.688-21.52-16.896l-3.808-7.104-0.464-122.4c-0.464-118.432-0.368-122.976 3.088-139.904 11.744-57.632 49.728-103.52 103.712-125.28 8-3.216 22.016-7.376 31.168-9.248 16-3.264 23.776-3.392 202.976-3.392s186.976 0.128 202.976 3.392c69.52 14.176 120.816 65.552 135.024 135.232 3.296 16.16 3.424 22.208 2.96 139.248l-0.48 122.352-3.872 7.248c-7.056 13.2-23.888 20.48-43.328 18.72-18.56-1.68-31.264-11.184-35.552-26.624-1.056-3.856-1.728-49.568-1.744-121.376-0.048-125.552-0.32-129.664-9.696-147.248-6.288-11.808-24.816-30.368-35.92-36-19.616-9.936-12.416-9.6-210.368-9.6-197.008 0-190.864-0.272-209.6 9.216-17.632 8.944-36.112 30.464-42.528 49.536-2.608 7.744-3.024 21.76-3.824 132.384l-0.896 123.744-3.808 7.104c-2.096 3.904-6.176 8.8-9.088 10.864-11.264 8.032-30.736 10.624-45.408 6.032z" />
<glyph unicode="&#xe92f;" glyph-name="shopping-bag" d="M461.648 872.832c-63.744-8.544-122.32-46.928-154.816-101.424-3.344-5.632-12.4-22.912-20.128-38.4-11.96-25.25-16.717-34.567-21.524-43.853l7.268 15.437c-0.128-0.16-7.856-1.184-17.184-2.288-18.080-2.16-41.056-8.88-55.888-16.352-33.92-17.104-65.584-50.416-79.92-84.096-11.456-26.928-16.432-57.904-13.616-84.736 4.288-41.008 46.336-325.648 50.032-338.768 10.704-38.032 28.592-68.416 56.064-95.264 34.064-33.28 70.16-51.344 118.304-59.232 22.784-3.728 340.736-3.728 363.52 0 48.256 7.904 84.336 25.984 118.352 59.36 27.68 27.152 45.296 57.056 56.016 95.136 3.664 13.024 45.728 297.648 49.984 338.208 2.832 27.040-2.176 58.512-13.568 85.296-14.336 33.68-46 66.992-79.92 84.096-14.832 7.472-37.808 14.192-55.888 16.352-9.328 1.104-17.056 2.128-17.184 2.288-0.128 0.144-7.152 14.096-15.6 31.024-8.448 16.912-20 37.648-25.648 46.080-29.312 43.632-78.064 76.496-130.896 88.208-12.72 2.832-23.088 3.504-60.576 3.968-24.88 0.304-50.608-0.16-57.184-1.040zM552.416 787.488c31.728-4.4 62.528-21.776 81.44-45.936 6.656-8.512 21.504-33.648 21.504-36.416 0-0.624-64.512-1.136-143.36-1.136s-143.36 0.512-143.36 1.136c0 2.768 14.848 27.904 21.504 36.416 18.272 23.328 49.904 41.584 79.408 45.808 15.568 2.224 67.136 2.304 82.864 0.128zM765.44 616.8c24.528-4.32 48-22.704 60.016-47.008 11.152-22.576 11.28-20.88-14.736-202.864-12.352-86.352-23.264-160.464-24.272-164.688-2.864-12.048-13.728-33.936-22.768-45.872-15.456-20.4-39.12-36.56-65.648-44.848l-12.8-4h-346.464l-12.8 4c-26.528 8.288-50.192 24.448-65.648 44.848-9.040 11.936-19.904 33.824-22.768 45.872-1.008 4.224-11.92 78.336-24.272 164.688-26.016 181.984-25.888 180.288-14.736 202.864 11.552 23.36 33.984 41.552 57.376 46.512 12.752 2.704 494.32 3.168 509.52 0.496z" />
<glyph unicode="&#xe930;" glyph-name="sliders-horizontal" d="M354.992 829.36c-75.584-12-134.544-75.616-141.28-152.416-1.568-17.824 0.144-42.032 4.032-57.248 11.648-45.568 43.408-86.24 84.832-108.576 84.096-45.36 188.96-11.744 231.664 74.272 4.672 9.376 10.496 24.736 12.976 34.128 3.856 14.672 4.496 20.544 4.496 41.808s-0.64 27.152-4.496 41.824c-12.368 47.008-44.576 87.664-86.4 109.040-19.248 9.856-32.88 14.32-52.72 17.312-19.728 2.976-33.728 2.944-53.104-0.144zM402.704 744c27.088-6.16 50.432-27.776 59.888-55.456 5.232-15.344 5.232-39.088 0-54.432-23.248-68.032-113.344-78.624-151.904-17.856-16.208 25.536-16.208 64.608 0 90.16 19.856 31.296 55.568 45.888 92.016 37.584zM111.52 701.664c-16.8-5.52-24.512-16.304-25.792-36.064-1.328-20.512 4.672-34.096 18.448-41.808 6.64-3.728 9.696-4.272 23.824-4.272 13.328 0.016 17.424 0.656 23.040 3.68 13.92 7.488 19.632 18.576 19.632 38.128 0 27.456-12.256 40.608-39.12 42-8.096 0.416-15.584-0.208-20.032-1.664zM623.52 701.552c-10.096-3.152-17.136-8.688-21.52-16.896-3.168-5.92-3.808-9.84-3.808-23.328 0-14.128 0.544-17.184 4.256-23.824 4.704-8.384 12.528-14.48 21.984-17.104 8.416-2.336 278.72-2.336 287.136 0 9.49 2.628 17.234 8.782 21.891 16.927l0.093 0.177c3.728 6.656 4.256 9.648 4.208 23.824-0.048 18.464-3.44 27.52-12.832 34.192-11.952 8.512-11.408 8.48-157.632 8.368-107.168-0.096-138.208-0.592-143.776-2.336zM613.696 403.568c-38.528-6.080-72.704-23.664-98.368-50.592-20.72-21.744-32.8-42.784-41.984-73.088-4.288-14.208-4.64-17.6-4.64-45.216 0-27.632 0.352-31.024 4.64-45.232 9.184-30.304 21.264-51.344 41.984-73.072 30.288-31.792 70.4-49.824 115.28-51.808 67.12-2.976 128.848 33.952 158.784 95.008 23.616 48.176 23.616 102.016 0 150.192-22.255 44.974-62.599 78.142-111.265 90.281l-1.167 0.247c-16.192 3.904-48.64 5.584-63.264 3.28zM658.912 316.864c31.536-8.224 56.592-36.272 61.6-68.976 4.256-27.856-4.016-53.008-24.064-73.136-18.512-18.576-39.168-26.608-64.128-24.912-27.536 1.856-50.064 14.88-65.552 37.888-18.56 27.6-18.576 66.208 0 93.872 11.648 17.344 34.128 32.928 52.752 36.544 5.019 0.945 10.793 1.486 16.693 1.486 8.059 0 15.883-1.009 23.352-2.907l-0.654 0.141zM111.52 274.912c-10.128-3.2-17.152-8.72-21.52-16.928-3.168-5.904-3.808-9.84-3.808-23.312 0-14.144 0.544-17.2 4.256-23.84 4.704-8.384 12.528-14.464 21.984-17.104 8.416-2.336 277.008-2.336 285.424 0 16.416 4.576 25.472 16.928 26.72 36.512 1.312 20.688-4.64 34.24-18.448 41.968l-7.616 4.272-139.952 0.336c-111.68 0.272-141.376-0.112-147.040-1.904zM879.52 274.992c-16.8-5.504-24.512-16.304-25.792-36.064-1.328-20.496 4.672-34.080 18.448-41.808 6.64-3.712 9.696-4.272 23.824-4.256 13.328 0 17.424 0.656 23.040 3.664 13.92 7.488 19.632 18.576 19.632 38.144 0 27.456-12.256 40.592-39.12 41.984-8.096 0.416-15.584-0.192-20.032-1.664z" />
<glyph unicode="&#xe931;" glyph-name="star" d="M490.816 831.792c-12.208-2.864-28.448-12.176-38.304-21.952-7.568-7.52-18.624-24.544-51.44-79.248-24.208-40.32-43.264-70.32-45.232-71.168-1.872-0.832-38.24-9.552-80.816-19.392-87.232-20.176-93.008-22.224-109.68-38.896-15.485-15.446-25.065-36.806-25.065-60.403 0-5.864 0.592-11.591 1.719-17.122l-0.093 0.549c4.064-20.24 11.008-30 67.808-95.232l53.536-61.504-7.168-82.864c-8.080-93.52-8.048-95.424 2.704-117.856 18.144-37.824 63.792-56.96 103.024-43.2 5.168 1.808 41.072 16.736 79.792 33.184l70.4 29.888 70.4-29.888c38.72-16.448 74.624-31.376 79.792-33.184 39.248-13.776 84.928 5.392 103.008 43.2 10.8 22.608 10.832 24 2.72 117.648l-7.2 83.040 53.552 61.52c56.816 65.248 63.76 75.008 67.824 95.248 1.034 4.983 1.625 10.709 1.625 16.573 0 23.597-9.58 44.956-25.064 60.401l-0.002 0.002c-16.672 16.672-22.448 18.72-109.68 38.896-42.576 9.84-78.944 18.56-80.816 19.376-1.984 0.848-20.912 30.64-45.232 71.168-32.88 54.816-43.872 71.76-51.44 79.28-10.16 10.064-26 19.008-39.008 22-9.28 2.128-32.448 2.096-41.664-0.064zM553.808 679.712c46.368-77.6 52.896-86.144 73.168-95.952 11.616-5.632 32.656-10.912 153.392-38.512 9.152-2.096 16.64-4.288 16.624-4.864 0-0.592-14.704-17.968-32.672-38.624-72.368-83.216-75.104-86.56-81.456-99.84-5.648-11.808-6.16-14.192-6.624-30.72-0.32-11.056 2.032-46.368 6.128-92.16 3.648-40.832 6.544-74.336 6.448-74.464s-27.056 11.2-59.904 25.168c-104.96 44.608-96.224 41.504-116.912 41.504s-11.952 3.104-116.912-41.504c-32.848-13.968-59.808-25.296-59.904-25.168s2.8 33.632 6.448 74.464c4.096 45.792 6.448 81.104 6.128 92.16-0.464 16.528-0.976 18.912-6.624 30.72-6.352 13.28-9.088 16.624-81.456 99.84-17.968 20.656-32.672 38.032-32.672 38.624-0.016 0.576 7.472 2.768 16.624 4.864 120.736 27.6 141.776 32.88 153.392 38.512 20.272 9.808 26.8 18.352 73.168 95.952 22.528 37.696 41.344 68.544 41.808 68.544s19.28-30.848 41.808-68.544z" />
<glyph unicode="&#xe932;" glyph-name="sun" d="M512 288v0c-42.435 0-83.131 16.858-113.138 46.862-30.005 30.006-46.862 70.702-46.862 113.138s16.858 83.131 46.862 113.138c30.006 30.005 70.702 46.862 113.138 46.862s83.131-16.858 113.138-46.862c30.005-30.006 46.862-70.702 46.862-113.138s-16.858-83.131-46.862-113.138c-30.006-30.005-70.702-46.862-113.138-46.862zM512 192c67.896 0 133.010 26.971 181.019 74.981s74.981 113.123 74.981 181.019c0 67.896-26.971 133.010-74.981 181.019s-113.123 74.981-181.019 74.981c-67.896 0-133.010-26.971-181.019-74.981s-74.981-113.123-74.981-181.019c0-67.896 26.971-133.010 74.981-181.019s113.123-74.981 181.019-74.981v0zM512 960c12.73 0 24.939-5.057 33.941-14.059s14.059-21.211 14.059-33.941v-96c0-12.73-5.058-24.939-14.059-33.941s-21.211-14.059-33.941-14.059c-12.73 0-24.939 5.058-33.941 14.059s-14.059 21.21-14.059 33.941v96c0 12.73 5.058 24.939 14.059 33.941s21.211 14.059 33.941 14.059v0zM512 128c12.73 0 24.939-5.058 33.941-14.059s14.059-21.211 14.059-33.941v-96c0-12.73-5.058-24.939-14.059-33.941s-21.211-14.059-33.941-14.059c-12.73 0-24.939 5.058-33.941 14.059s-14.059 21.211-14.059 33.941v96c0 12.73 5.058 24.939 14.059 33.941s21.211 14.059 33.941 14.059zM149.952 810.048c4.458 4.46 9.75 7.999 15.576 10.413s12.070 3.657 18.376 3.657c6.306 0 12.55-1.243 18.376-3.657s11.118-5.952 15.576-10.413l67.84-67.904c8.478-9.099 13.094-21.134 12.875-33.57s-5.258-24.299-14.051-33.094c-8.795-8.794-20.659-13.832-33.094-14.051s-24.47 4.397-33.57 12.875l-67.84 67.84c-8.989 9-14.038 21.2-14.038 33.92s5.049 24.92 14.038 33.92l-0.064 0.064zM738.304 221.696c9 8.989 21.2 14.038 33.92 14.038s24.92-5.050 33.92-14.038l67.904-67.84c8.747-9.048 13.592-21.171 13.488-33.757-0.102-12.586-5.146-24.627-14.040-33.531-8.896-8.904-20.933-13.957-33.518-14.072s-24.712 4.717-33.77 13.456l-67.904 67.84c-4.461 4.458-7.998 9.75-10.413 15.576s-3.658 12.070-3.658 18.376c0 6.306 1.243 12.55 3.658 18.376s5.952 11.118 10.413 15.576v0zM1024 448c0-12.73-5.058-24.939-14.059-33.941s-21.211-14.059-33.941-14.059h-96c-12.73 0-24.939 5.058-33.941 14.059s-14.059 21.211-14.059 33.941c0 12.73 5.058 24.939 14.059 33.941s21.211 14.059 33.941 14.059h96c12.73 0 24.939-5.058 33.941-14.059s14.059-21.211 14.059-33.941zM192 448c0-12.73-5.058-24.939-14.059-33.941s-21.21-14.059-33.941-14.059h-96c-12.73 0-24.939 5.058-33.941 14.059s-14.059 21.211-14.059 33.941c0 12.73 5.057 24.939 14.059 33.941s21.211 14.059 33.941 14.059h96c12.73 0 24.939-5.058 33.941-14.059s14.059-21.211 14.059-33.941zM874.048 810.048c4.461-4.458 7.998-9.75 10.413-15.576s3.658-12.070 3.658-18.376c0-6.306-1.243-12.55-3.658-18.376s-5.952-11.118-10.413-15.576l-67.904-67.84c-4.394-4.715-9.694-8.499-15.581-11.122-5.888-2.624-12.245-4.035-18.69-4.149s-12.846 1.072-18.824 3.486c-5.976 2.414-11.406 6.008-15.965 10.565-4.557 4.558-8.15 9.989-10.565 15.965-2.414 5.978-3.6 12.379-3.486 18.824s1.525 12.802 4.149 18.69c2.622 5.886 6.406 11.187 11.122 15.581l67.84 67.84c9 8.989 21.2 14.038 33.92 14.038s24.92-5.049 33.92-14.038l0.064 0.064zM285.696 221.696c8.989-9 14.038-21.2 14.038-33.92s-5.050-24.92-14.038-33.92l-67.84-67.904c-4.426-4.587-9.72-8.246-15.576-10.765-5.854-2.518-12.152-3.845-18.526-3.902-6.373-0.059-12.694 1.152-18.594 3.563s-11.261 5.973-15.77 10.477c-4.509 4.506-8.076 9.862-10.492 15.76s-3.634 12.218-3.581 18.592c0.052 6.373 1.373 12.672 3.886 18.53s6.167 11.155 10.749 15.586l67.84 67.904c4.458 4.461 9.75 7.998 15.576 10.413s12.070 3.658 18.376 3.658c6.306 0 12.55-1.243 18.376-3.658s11.118-5.952 15.576-10.413v0z" />
<glyph unicode="&#xe933;" glyph-name="toggle-off" d="M259.408 753.296c-47.536-5.408-91.2-21.344-129.92-47.408-115.088-77.44-159.616-222.016-107.968-350.512 14.496-36.080 31.92-62.688 60.4-92.272 44.32-46.048 97.984-74.544 162.112-86.096 14.848-2.672 37.728-2.928 267.968-2.928 276.4 0 262.176-0.48 299.536 10.256 100.192 28.832 177.248 107.264 203.088 206.688 10.336 39.776 12.080 92.64 4.256 129.504-16.672 78.752-60.672 143.568-127.152 187.36-38.048 25.056-81.232 40.272-129.2 45.504-20.16 2.192-483.76 2.112-503.12-0.096zM316.592 656.16c65.52-9.328 121.68-50.608 149.456-109.888 48.688-103.904-3.616-226.864-112.768-265.152-56.848-19.936-120.88-11.184-172.608 23.6-13.984 9.424-39.792 35.232-49.232 49.264-44.576 66.272-45.568 150.208-2.544 216.368 11.248 17.296 35.824 42.624 51.776 53.344 40.432 27.2 89.888 39.008 135.92 32.464z" />
<glyph unicode="&#xe934;" glyph-name="toggle-on" d="M259.408 753.296c-114.528-13.056-211.008-91.52-245.488-199.696-10.96-34.368-12.944-48.112-12.944-89.392 0-42.064 2.192-56.72 13.728-91.296 29.621-87.195 97.028-154.575 182.192-183.555l2.048-0.605c48.4-16.080 43.184-15.84 325.008-15.152 264.384 0.64 250.8 0.128 287.616 10.768 68.992 19.92 126.976 62.784 166.368 122.992 56.144 85.792 61.040 201.248 12.4 292.528-46.064 86.448-129.696 142.8-227.808 153.504-20.16 2.192-483.76 2.112-503.12-0.096zM780.24 652.256c69.696-18.176 122.912-71.408 140.752-140.816 5.776-22.48 7.136-54.496 3.296-77.776-10.336-62.816-50.16-116.224-106.896-143.392-75.728-36.256-162.992-21.184-221.92 38.352-93.168 94.096-65.632 252.4 53.92 309.856 31.728 15.264 52.288 19.536 89.6 18.656 19.568-0.464 28.192-1.488 41.248-4.88z" />
<glyph unicode="&#xe935;" glyph-name="trash" d="M417.68 872.848c-10.864-2.624-19.12-7.808-28.16-17.696-9.52-10.416-13.232-19.408-15.072-36.464-1.232-11.6-5.136-18.976-13.184-24.928-4.672-3.472-7.024-3.6-83.68-4.432l-78.864-0.848-8.48-4.368c-14.512-7.472-20.528-20.624-19.184-41.872 1.248-19.584 10.288-31.936 26.72-36.512 8.512-2.352 619.936-2.352 628.448 0 9.489 2.63 17.232 8.783 21.891 16.927l0.093 0.177c3.728 6.672 4.272 9.664 4.224 23.84-0.064 22.64-5.44 32.176-22.336 39.616-3.648 1.6-25.408 2.4-83.728 3.040-76.608 0.832-78.96 0.96-83.632 4.432-8.048 5.952-11.952 13.328-13.184 24.928-0.837 7.139-2.174 13.56-4.017 19.763l0.209-0.819c-3.6 11.088-18.304 26.816-30.048 32.128l-8.976 4.048-91.312 0.288c-50.208 0.16-94.192-0.4-97.728-1.248zM242.72 616.96c-16.848-3.552-27.824-16.448-28.992-34.048-1.088-16.576 33.296-417.184 37.104-432.272 16.803-65.184 69.412-114.672 135.111-126.673l1.049-0.159c19.2-3.424 230.816-3.424 250.016 0 56.384 10.048 106.064 49.344 127.504 100.864 10.864 26.112 10.992 27.088 29.472 248.48 15.696 187.728 17.264 210.144 15.28 217.568-2.96 11.040-8.352 17.712-18.416 22.752-6.944 3.472-10.928 4.192-23.696 4.256-12.816 0.064-16.576-0.56-22.624-3.792-8.8-4.704-15.056-13.712-17.424-25.136-0.976-4.688-9.040-96.464-17.92-203.952-8.88-107.472-16.976-200.736-17.984-207.264-4.928-31.616-29.632-59.040-61.040-67.744-10.56-2.928-19.44-3.168-118.192-3.168-115.888 0-116.336 0.032-135.232 9.6-4.912 2.496-14 9.6-20.176 15.808-13.328 13.36-21.056 28.144-23.76 45.504-1.008 6.528-9.104 99.792-17.984 207.264-8.88 107.488-16.944 199.264-17.92 203.952-3.856 18.544-15.776 28.256-35.776 29.184-6.096 0.272-14.384-0.176-18.4-1.024z" />
<glyph unicode="&#xe936;" glyph-name="unlock" d="M484.624 872.064c-69.456-10.832-125.488-64.992-139.76-135.088-3.232-15.856-3.536-23.264-3.536-89.136v-71.84l-4.688-0.016c-9.664-0.016-37.904-5.088-48.416-8.688-59.184-20.256-101.664-68.32-114.032-128.992-3.376-16.528-3.52-22.736-3.52-139.632 0-116.912 0.144-123.12 3.52-139.648 9.955-48.508 39.197-88.789 79.18-113.219l0.756-0.429c14.048-8.464 36.432-16.896 54.896-20.656 16-3.264 23.776-3.392 202.976-3.392s186.976 0.128 202.976 3.392c58.032 11.824 103.92 49.712 125.728 103.808 3.216 7.984 7.376 22.016 9.232 31.152 3.2 15.696 3.392 23.648 3.392 138.992s-0.192 123.296-3.392 138.976c-12.48 61.296-54.768 109.328-114.16 129.648-23.808 8.16-34.464 8.688-176.416 8.688l-132.688 0.016 0.096 69.552c0.112 77.792 0.768 83.424 11.808 101.664 29.776 49.104 96.832 56.4 135.472 14.72 17.328-18.688 23.2-36.176 23.248-69.152 0.048-29.936 5.776-42.272 22.96-49.44 9.072-3.776 30.368-3.808 39.376-0.048 18.032 7.536 23.040 19.136 23.040 53.488 0 59.536-23.376 109.28-66.64 141.888-24.416 18.4-49.584 29.184-78.224 33.504-19.68 2.96-33.648 2.928-53.184-0.112zM704.992 487.536c29.392-7.664 54.272-33.552 60.496-62.944 3.6-17.024 3.6-234.816 0-251.84-3.344-15.776-9.872-27.296-23.072-40.672-12.016-12.176-23.328-18.848-38.752-22.864-14.656-3.824-368.672-3.824-383.328 0-29.216 7.6-53.728 31.824-61.2 60.464-2.64 10.064-2.944 23.312-3.040 127.792-0.112 129.92-0.016 131.232 11.2 149.936 12.016 20.064 30.864 34.688 51.712 40.128 10.272 2.688 26.672 2.928 192.992 2.928s182.72-0.24 192.992-2.928z" />
<glyph unicode="&#xe937;" glyph-name="user-circle" d="M472.752 872.768c-67.12-5.936-136.416-30.128-193.712-67.632-27.104-17.728-44.416-31.92-69.168-56.704-83.888-83.952-127.968-195.648-123.984-314.080 3.040-90.4 31.52-171.024 86.208-244.064 16.928-22.608 54.24-60.768 75.376-77.088 61.504-47.52 127.424-75.808 204.8-87.888 27.584-4.304 91.872-4.304 119.456 0 95.504 14.912 175.088 54.896 241.568 121.392 66.496 66.48 106.48 146.064 121.392 241.568 4.304 27.584 4.304 91.872 0 119.456-12.080 77.392-40.432 143.44-87.904 204.8-14.368 18.576-51.536 55.728-70.256 70.208-88.176 68.272-194.288 99.712-303.776 90.032zM543.328 787.568c78.512-7.44 149.088-39.856 205.664-94.48 64.174-62.011 104.019-148.846 104.019-244.988 0-54.383-12.749-105.789-35.421-151.392l0.891 1.98c-11.792-24.144-25.92-46.624-40.24-64.016-5.008-6.112-9.296-11.344-9.52-11.664-0.24-0.304-7.968 5.456-17.216 12.8-53.648 42.704-116.208 69.856-184.896 80.224-26.96 4.080-82.256 4.080-109.216 0-68.688-10.368-131.248-37.52-184.896-80.224-9.248-7.344-16.976-13.104-17.216-12.8-0.224 0.32-4.512 5.552-9.52 11.664-31.968 38.848-58.4 95.456-68.224 146.016-14.448 74.32-4.64 150.272 27.952 216.64 57.424 116.896 172.832 189.92 303.104 191.776 8.912 0.128 24.544-0.56 34.736-1.536zM484.624 701.392c-48.144-7.504-94.512-38.944-119.008-80.704-53.312-90.88-14.352-206.176 82.912-245.392 87.264-35.184 186.224 7.072 221.504 94.56 7.819 18.773 12.361 40.582 12.361 63.451 0 22.824-4.524 44.592-12.723 64.456l0.411-1.123c-22.736 56.272-72.704 95.888-132.272 104.864-19.68 2.96-33.648 2.944-53.184-0.112zM534.32 615.536c31.536-8.224 56.592-36.288 61.6-68.976 4.272-27.872-4-53.024-24.064-73.152-17.088-17.152-36.528-25.408-59.856-25.408-21.968 0-41.056 7.584-57.456 22.816-56.752 52.752-19.824 147.648 57.456 147.648 8.016-0.202 15.685-1.258 23.051-3.081l-0.731 0.153zM542.368 232.864c36.592-4 66.448-12.48 99.312-28.24 17.968-8.608 44.976-25.408 56.944-35.408l4.864-4.064-12.544-7.808c-40.784-25.392-93.728-43.424-143.456-48.864-72.48-7.92-152.528 10.32-214.432 48.864l-12.544 7.808 4.864 4.064c11.936 9.968 38.96 26.784 56.944 35.424 50.592 24.32 106.112 34.096 160.048 28.224z" />
<glyph unicode="&#xe938;" glyph-name="user-square" d="M273.072 872.784c-69.936-7.904-133.936-53.168-165.312-116.944-7.738-15.397-14.103-33.288-18.186-52.031l-0.278-1.521c-2.928-13.632-3.104-28.864-3.104-254.288s0.176-240.656 3.104-254.288c18.48-86.352 82.064-149.936 168.416-168.416 13.632-2.928 28.864-3.104 254.288-3.104s240.656 0.176 254.288 3.104c65.216 13.968 118.96 54.496 148.176 111.76 8.714 16.336 15.701 35.273 19.981 55.214l0.259 1.442c2.928 13.632 3.104 28.864 3.104 254.288s-0.176 240.656-3.104 254.288c-12.048 56.272-44.56 105.12-89.904 135.104-32.16 21.264-59.888 31.52-95.936 35.456-20.032 2.192-456.304 2.128-475.792-0.064zM762.048 784.16c41.632-13.152 74.752-46.752 86.496-87.776l3.936-13.712v-469.344l-3.936-13.744c-2.948-9.671-6.426-17.976-10.615-25.845l0.375 0.773c-6.816-12.24-22.304-32-25.072-31.968-0.944 0.016-4.704 5.2-8.368 11.52-23.52 40.56-62.304 80.768-105.984 109.856-19.12 12.752-58.064 31.888-78.88 38.768-23.536 7.808-52.864 13.456-81.968 15.792-43.664 3.52-93.424-2.336-134.032-15.792-20.816-6.88-59.76-26.016-78.88-38.768-43.68-29.088-82.464-69.296-105.984-109.856-3.664-6.32-7.424-11.504-8.368-11.52-2.768-0.032-18.256 19.728-25.072 31.968-3.814 7.096-7.292 15.401-9.97 24.057l-0.27 1.015-3.936 13.744v469.344l3.936 13.712c13.376 46.752 53.856 82.976 101.824 91.136 4.72 0.8 112.656 1.344 239.84 1.2l231.248-0.24 13.68-4.32zM484.624 701.392c-48.144-7.504-94.512-38.944-119.008-80.704-53.312-90.88-14.352-206.176 82.912-245.392 87.264-35.184 186.224 7.072 221.504 94.56 7.819 18.773 12.361 40.582 12.361 63.451 0 22.824-4.524 44.592-12.723 64.456l0.411-1.123c-22.736 56.272-72.704 95.888-132.272 104.864-19.68 2.96-33.648 2.944-53.184-0.112zM534.32 615.536c31.536-8.224 56.592-36.288 61.6-68.976 4.272-27.872-4-53.024-24.064-73.152-17.088-17.152-36.528-25.408-59.856-25.408-21.968 0-41.056 7.584-57.456 22.816-56.752 52.752-19.824 147.648 57.456 147.648 8.016-0.202 15.685-1.258 23.051-3.081l-0.731 0.153zM558.080 230.416c69.84-13.152 131.936-54.8 169.424-113.648l6.448-10.096h-443.904l6.448 10.096c41.456 65.056 112.016 108.272 190.752 116.832 13.36 1.44 56.56-0.496 70.832-3.184z" />
<glyph unicode="&#xe939;" glyph-name="user" d="M486.4 872.784c-69.936-7.904-133.936-53.168-165.296-116.944-15.712-31.904-21.584-57.664-21.584-94.512 0-28.576 2.48-44.528 10.592-68.256 24.656-72.144 84.688-124.784 160.928-141.12 20.112-4.304 61.808-4.304 81.92 0 65.216 13.968 118.944 54.496 148.176 111.776 17.264 33.84 23.344 59.248 23.344 97.6 0 38.336-6.080 63.776-23.328 97.568-27.264 53.44-78.032 94-136.24 108.88-24.368 6.208-52.096 7.984-78.512 5.008zM548.72 783.84c40.24-11.776 73.52-44.976 85.952-85.792 3.536-11.616 4.176-17.152 4.176-36.72 0-19.552-0.64-25.104-4.176-36.704-12.496-41.024-45.056-73.424-86.832-86.432-18.512-5.76-53.168-5.76-71.68 0-41.776 13.008-74.336 45.408-86.832 86.432-3.536 11.6-4.176 17.152-4.176 36.704 0 19.568 0.64 25.104 4.176 36.72 14.112 46.32 53.152 80.848 101.28 89.568 14.224 2.576 42.72 0.72 58.112-3.776zM476.16 404.32c-88.208-7.648-139.28-21.504-192.848-52.32-26.56-15.28-41.136-26.64-64.912-50.576-47.984-48.336-68.496-95.056-61.52-140.144 4.848-31.248 18.816-58.080 42.72-82.016 22.352-22.384 47.152-37.424 78.784-47.76 31.344-10.24 29.76-10.176 233.616-10.176s202.272-0.064 233.616 10.176c31.632 10.336 56.432 25.376 78.784 47.76 24.256 24.272 38.32 51.584 42.736 82.976 6.608 46.96-15.984 95.936-66.96 145.088-55.264 53.312-126.736 83.488-224.176 94.656-16.048 1.84-86.544 3.488-99.84 2.336zM579.344 315.744c80.64-10.736 137.344-38.32 177.12-86.192 31.984-38.496 34.048-61.68 7.968-89.456-11.792-12.576-24.048-20.208-43.824-27.264l-14.896-5.312h-387.424l-14.896 5.312c-19.808 7.072-32.032 14.688-43.904 27.328-13.056 13.92-17.776 23.904-17.776 37.552 0 14.336 7.984 30.368 25.824 51.84 43.36 52.176 108.496 81.040 200.24 88.72 25.088 2.112 87.376 0.704 111.568-2.528z" />
<glyph unicode="&#xe9a9;" glyph-name="fire" d="M321.008-64c-68.246 142.008-31.902 223.378 20.55 300.044 57.44 83.956 72.244 167.066 72.244 167.066s45.154-58.7 27.092-150.508c79.772 88.8 94.824 230.28 82.782 284.464 180.314-126.012 257.376-398.856 153.522-601.066 552.372 312.532 137.398 780.172 65.154 832.85 24.082-52.676 28.648-141.85-20-185.126-82.352 312.276-285.972 376.276-285.972 376.276 24.082-161.044-87.296-337.144-194.696-468.73-3.774 64.216-7.782 108.528-41.55 169.98-7.58-116.656-96.732-211.748-120.874-328.628-32.702-158.286 24.496-274.18 241.748-396.622z" />
<glyph unicode="&#xea96;" glyph-name="twitter" d="M1024 733.6c-37.6-16.8-78.2-28-120.6-33 43.4 26 76.6 67.2 92.4 116.2-40.6-24-85.6-41.6-133.4-51-38.4 40.8-93 66.2-153.4 66.2-116 0-210-94-210-210 0-16.4 1.8-32.4 5.4-47.8-174.6 8.8-329.4 92.4-433 219.6-18-31-28.4-67.2-28.4-105.6 0-72.8 37-137.2 93.4-174.8-34.4 1-66.8 10.6-95.2 26.2 0-0.8 0-1.8 0-2.6 0-101.8 72.4-186.8 168.6-206-17.6-4.8-36.2-7.4-55.4-7.4-13.6 0-26.6 1.4-39.6 3.8 26.8-83.4 104.4-144.2 196.2-146-72-56.4-162.4-90-261-90-17 0-33.6 1-50.2 3 93.2-59.8 203.6-94.4 322.2-94.4 386.4 0 597.8 320.2 597.8 597.8 0 9.2-0.2 18.2-0.6 27.2 41 29.4 76.6 66.4 104.8 108.6z" />
<glyph unicode="&#xea9f;" glyph-name="twitch" d="M96 960l-96-160v-736h256v-128h128l128 128h160l288 288v608h-864zM832 416l-160-160h-160l-128-128v128h-192v576h640v-416zM608 704h96v-256h-96v256zM416 704h96v-256h-96v256z" />
<glyph unicode="&#xeab0;" glyph-name="github" d="M512.008 947.358c-282.738 0-512.008-229.218-512.008-511.998 0-226.214 146.704-418.132 350.136-485.836 25.586-4.738 34.992 11.11 34.992 24.632 0 12.204-0.48 52.542-0.696 95.324-142.448-30.976-172.504 60.41-172.504 60.41-23.282 59.176-56.848 74.916-56.848 74.916-46.452 31.778 3.51 31.124 3.51 31.124 51.4-3.61 78.476-52.766 78.476-52.766 45.672-78.27 119.776-55.64 149.004-42.558 4.588 33.086 17.852 55.68 32.506 68.464-113.73 12.942-233.276 56.85-233.276 253.032 0 55.898 20.004 101.574 52.76 137.428-5.316 12.9-22.854 64.972 4.952 135.5 0 0 43.006 13.752 140.84-52.49 40.836 11.348 84.636 17.036 128.154 17.234 43.502-0.198 87.336-5.886 128.256-17.234 97.734 66.244 140.656 52.49 140.656 52.49 27.872-70.528 10.35-122.6 5.036-135.5 32.82-35.856 52.694-81.532 52.694-137.428 0-196.654-119.778-239.95-233.79-252.624 18.364-15.89 34.724-47.046 34.724-94.812 0-68.508-0.596-123.644-0.596-140.508 0-13.628 9.222-29.594 35.172-24.566 203.322 67.776 349.842 259.626 349.842 485.768 0 282.78-229.234 511.998-511.992 511.998z" />
</font>
</defs>
</svg>
