<svg xmlns="http://www.w3.org/2000/svg" title="Project" aria-label="Project" role="img" height="16" viewBox="0 0 16 16" version="1.1" width="16" data-view-component="true" class="octicon octicon-project js-jump-to-octicon-project d-none flex-shrink-0">
    <defs>
        <linearGradient id="myGradient" gradientTransform="rotate(90)">
            <stop offset="5%" stop-color="#7f00ff" />
            <stop offset="95%" stop-color="#e100ff" />
        </linearGradient>
    </defs>
    <path fill-rule="evenodd" fill="url(#myGradient)" d="M1.75 0A1.75 1.75 0 000 1.75v12.5C0 15.216.784 16 1.75 16h12.5A1.75 1.75 0 0016 14.25V1.75A1.75 1.75 0 0014.25 0H1.75zM1.5 1.75a.25.25 0 01.25-.25h12.5a.25.25 0 01.25.25v12.5a.25.25 0 01-.25.25H1.75a.25.25 0 01-.25-.25V1.75zM11.75 3a.75.75 0 00-.75.75v7.5a.75.75 0 001.5 0v-7.5a.75.75 0 00-.75-.75zm-8.25.75a.75.75 0 011.5 0v5.5a.75.75 0 01-1.5 0v-5.5zM8 3a.75.75 0 00-.75.75v3.5a.75.75 0 001.5 0v-3.5A.75.75 0 008 3z" />
</svg>