<svg width="14" height="14" viewBox="0 0 14 14" fill="none" xmlns="http://www.w3.org/2000/svg">
<g clip-path="url(#clip0_3_20)">
<rect x="1.75" y="2.91669" width="9.91667" height="8.75" fill="white"/>
<path d="M11.2 0H2.8C1.25374 0 0 1.25374 0 2.8V11.2C0 12.7463 1.25374 14 2.8 14H11.2C12.7463 14 14 12.7463 14 11.2V2.8C14 1.25374 12.7463 0 11.2 0ZM11.3617 5.70098L7.03038 10.0317C6.79119 10.2715 6.47813 10.3907 6.16477 10.3907C5.8517 10.3907 5.53804 10.2715 5.29885 10.0317L2.63796 7.37115C2.16017 6.89336 2.16017 6.1177 2.63796 5.63932C3.11664 5.16094 3.8917 5.16094 4.37038 5.63932L6.16447 7.4334L9.62962 3.96826C10.1077 3.49017 10.8834 3.49017 11.3614 3.96826C11.8404 4.44664 11.8404 5.2223 11.3617 5.70098Z" fill="#1E8CE6"/>
</g>
<defs>
<clipPath id="clip0_3_20">
<rect width="14" height="14" fill="white"/>
</clipPath>
</defs>
</svg>
