<svg width="24" height="24" viewBox="0 0 24 24" fill="none" xmlns="http://www.w3.org/2000/svg">
    <g clip-path="url(#clip0_3_20)">
        <rect x="3" y="5" width="17" height="15" fill="white" />
        <path d="M19.2 0H4.8C2.14928 0 0 2.14928 0 4.8V19.2C0 21.8507 2.14928 24 4.8 24H19.2C21.8507 24 24 21.8507 24 19.2V4.8C24 2.14928 21.8507 0 19.2 0ZM19.4773 9.77311L12.0521 17.1973C11.642 17.6083 11.1054 17.8126 10.5682 17.8126C10.0315 17.8126 9.49379 17.6083 9.08374 17.1973L4.52221 12.6363C3.70315 11.8172 3.70315 10.4875 4.52221 9.6674C5.34281 8.84732 6.67149 8.84732 7.49209 9.6674L10.5677 12.743L16.5079 6.80272C17.3275 5.98315 18.6572 5.98315 19.4768 6.80272C20.2979 7.62281 20.2979 8.95251 19.4773 9.77311Z" fill="#1E8CE6" />
    </g>
    <defs>
        <clipPath id="clip0_3_20">
            <rect width="24" height="24" fill="white" />
        </clipPath>
    </defs>
</svg>